<svg width="90" height="30" xmlns="http://www.w3.org/2000/svg"><g fill-rule="nonzero" fill="none"><path d="M82.6 0H7.152L6.33 0c-.23.002-.457.006-.69.01a9.911 9.911 0 0 0-1.502.133A4.828 4.828 0 0 0 .146 4.142a9.745 9.745 0 0 0-.135 1.5c-.007.23-.007.461-.011.691V23.67c.004.233.004.458.011.691.006.503.051 1.005.135 1.502.082.497.24.979.469 1.428.227.449.525.857.883 1.21.355.358.765.657 1.214.885.449.228.93.387 1.426.473.497.081 1 .126 1.503.132.232.005.46.008.689.008.274.002.546.002.821.002h75.45c.27 0 .543 0 .813-.002.228 0 .463-.003.691-.008a9.96 9.96 0 0 0 1.5-.132c.498-.086.98-.246 1.431-.473a4.708 4.708 0 0 0 1.213-.884c.357-.355.656-.764.886-1.211.227-.45.384-.931.465-1.428.083-.497.13-.999.139-1.502.003-.233.003-.458.003-.691.006-.273.006-.544.006-.82V7.151c0-.275 0-.547-.006-.819 0-.23 0-.46-.003-.69a10.13 10.13 0 0 0-.14-1.502 4.963 4.963 0 0 0-.464-1.427 4.85 4.85 0 0 0-2.099-2.1 5.076 5.076 0 0 0-1.43-.47 9.783 9.783 0 0 0-1.5-.133c-.23-.004-.464-.008-.692-.01L82.6 0Z" fill="#A6A6A6"/><path d="M6.334 29.344c-.229 0-.452-.003-.679-.008a9.515 9.515 0 0 1-1.401-.123 4.413 4.413 0 0 1-1.243-.41 4.054 4.054 0 0 1-1.048-.763 3.99 3.99 0 0 1-.765-1.047A4.291 4.291 0 0 1 .79 25.75a9.31 9.31 0 0 1-.125-1.407c-.005-.158-.011-.684-.011-.684V6.333s.006-.518.01-.67c.006-.471.048-.94.125-1.405.071-.434.209-.854.408-1.246A4.174 4.174 0 0 1 4.25.789 9.44 9.44 0 0 1 5.657.664l.677-.009H83.41l.685.01c.467.005.933.046 1.394.122.436.074.858.212 1.253.41a4.195 4.195 0 0 1 1.811 1.816c.196.39.33.806.402 1.236.077.468.121.941.13 1.416.002.212.002.44.002.667.006.281.006.55.006.819v15.696c0 .273 0 .539-.006.807 0 .244 0 .467-.003.697-.009.466-.051.93-.128 1.39-.07.436-.207.859-.405 1.253a4.11 4.11 0 0 1-.762 1.04c-.306.31-.66.568-1.05.766-.393.2-.815.338-1.25.412a9.407 9.407 0 0 1-1.402.123c-.22.005-.45.008-.673.008l-.813.001-76.267-.001Z" fill="#000"/><g fill="#FFF"><path d="M18.577 15.225a3.712 3.712 0 0 1 1.767-3.114 3.8 3.8 0 0 0-2.993-1.618c-1.26-.132-2.48.754-3.123.754-.654 0-1.642-.74-2.706-.719a3.986 3.986 0 0 0-3.355 2.046c-1.45 2.511-.368 6.202 1.021 8.232.696.994 1.508 2.104 2.571 2.065 1.04-.043 1.429-.663 2.685-.663 1.244 0 1.608.663 2.693.638 1.116-.018 1.82-.998 2.49-2.002.5-.708.884-1.49 1.139-2.32a3.587 3.587 0 0 1-2.19-3.299ZM16.528 9.158c.609-.73.908-1.67.836-2.618a3.718 3.718 0 0 0-2.406 1.245c-.609.693-.918 1.6-.858 2.52a3.074 3.074 0 0 0 2.428-1.147Z"/><g><path d="M31.727 20.355h-3.55l-.853 2.517H25.82l3.363-9.314h1.562l3.363 9.314h-1.53l-.851-2.517Zm-3.183-1.162h2.814l-1.387-4.085h-.039l-1.388 4.085ZM41.37 19.477c0 2.11-1.13 3.466-2.834 3.466a2.302 2.302 0 0 1-2.137-1.188h-.032v3.363h-1.394v-9.036h1.35v1.13h.025a2.409 2.409 0 0 1 2.162-1.201c1.724 0 2.86 1.362 2.86 3.466Zm-1.433 0c0-1.375-.71-2.278-1.794-2.278-1.065 0-1.782.922-1.782 2.278 0 1.368.717 2.285 1.782 2.285 1.084 0 1.794-.898 1.794-2.285ZM48.843 19.477c0 2.11-1.13 3.466-2.833 3.466a2.302 2.302 0 0 1-2.137-1.188h-.032v3.363h-1.394v-9.036h1.35v1.13h.025a2.409 2.409 0 0 1 2.162-1.201c1.723 0 2.86 1.362 2.86 3.466Zm-1.432 0c0-1.375-.71-2.278-1.795-2.278-1.065 0-1.781.922-1.781 2.278 0 1.368.716 2.285 1.781 2.285 1.084 0 1.795-.898 1.795-2.285ZM53.783 20.277c.103.924 1 1.53 2.226 1.53 1.175 0 2.02-.606 2.02-1.44 0-.722-.51-1.155-1.717-1.452l-1.207-.29c-1.71-.413-2.504-1.213-2.504-2.511 0-1.607 1.4-2.71 3.39-2.71 1.967 0 3.316 1.103 3.362 2.71h-1.407c-.084-.93-.853-1.49-1.976-1.49-1.122 0-1.89.567-1.89 1.393 0 .659.49 1.046 1.69 1.343l1.027.252c1.91.452 2.704 1.22 2.704 2.581 0 1.743-1.388 2.834-3.595 2.834-2.065 0-3.46-1.065-3.55-2.75h1.427ZM62.51 14.475v1.607h1.29v1.103h-1.29v3.744c0 .581.258.852.826.852.153-.002.306-.013.458-.032v1.097c-.255.048-.514.07-.774.065-1.375 0-1.91-.517-1.91-1.833v-3.893h-.988v-1.103h.987v-1.607h1.4ZM64.549 19.477c0-2.136 1.258-3.479 3.22-3.479 1.969 0 3.221 1.343 3.221 3.48 0 2.142-1.246 3.478-3.221 3.478s-3.22-1.336-3.22-3.479Zm5.021 0c0-1.465-.672-2.33-1.801-2.33-1.13 0-1.8.871-1.8 2.33 0 1.472.67 2.33 1.8 2.33s1.801-.858 1.801-2.33ZM72.14 16.082h1.329v1.155h.032a1.62 1.62 0 0 1 1.633-1.226c.16 0 .321.017.478.052v1.303a1.948 1.948 0 0 0-.627-.084 1.404 1.404 0 0 0-1.452 1.562v4.028H72.14v-6.79ZM82.038 20.878c-.188 1.232-1.388 2.078-2.924 2.078-1.975 0-3.201-1.323-3.201-3.447 0-2.13 1.232-3.51 3.143-3.51 1.878 0 3.06 1.29 3.06 3.349v.477H77.32v.084a1.768 1.768 0 0 0 1.826 1.924 1.536 1.536 0 0 0 1.568-.955h1.324Zm-4.712-2.027h3.395a1.633 1.633 0 0 0-1.665-1.723 1.719 1.719 0 0 0-1.73 1.723Z"/></g></g><g fill="#FFF"><path d="M28.37 6.548a1.98 1.98 0 0 1 2.105 2.224c0 1.43-.772 2.251-2.105 2.251h-1.617V6.548h1.617Zm-.922 3.842h.844a1.407 1.407 0 0 0 1.476-1.61 1.41 1.41 0 0 0-1.476-1.6h-.844v3.21ZM31.26 9.333a1.6 1.6 0 1 1 3.186 0 1.6 1.6 0 1 1-3.186 0Zm2.5 0c0-.732-.329-1.16-.906-1.16-.58 0-.905.428-.905 1.16 0 .738.326 1.163.905 1.163.577 0 .906-.428.906-1.163ZM38.68 11.024h-.692l-.698-2.488h-.052l-.695 2.488h-.685l-.93-3.378h.675l.605 2.577h.05l.694-2.577h.64l.694 2.577h.052l.602-2.577h.667zM40.39 7.646h.642v.537h.05a1.011 1.011 0 0 1 1.007-.602 1.098 1.098 0 0 1 1.17 1.256v2.186h-.667V9.004c0-.542-.236-.812-.73-.812a.775.775 0 0 0-.805.856v1.975h-.667V7.646ZM44.32 6.328h.667v4.696h-.667zM45.913 9.333a1.6 1.6 0 1 1 3.186 0 1.6 1.6 0 1 1-3.186 0Zm2.5 0c0-.732-.329-1.16-.906-1.16-.58 0-.905.428-.905 1.16 0 .738.326 1.163.905 1.163.577 0 .906-.428.906-1.163ZM49.8 10.068c0-.608.453-.958 1.257-1.008l.914-.053v-.291c0-.357-.235-.558-.691-.558-.372 0-.63.136-.704.375h-.645c.068-.58.614-.952 1.38-.952.846 0 1.324.421 1.324 1.135v2.307h-.642v-.474h-.052c-.218.346-.606.549-1.015.53a1.02 1.02 0 0 1-1.125-1.01Zm2.171-.288v-.283l-.824.053c-.465.031-.676.19-.676.487 0 .304.263.48.626.48a.796.796 0 0 0 .874-.737ZM53.51 9.333c0-1.067.55-1.743 1.403-1.743.43-.02.834.211 1.035.593h.05V6.328h.667v4.695h-.639v-.533h-.053a1.172 1.172 0 0 1-1.06.589c-.86 0-1.402-.676-1.402-1.746Zm.69 0c0 .716.337 1.148.902 1.148.562 0 .909-.438.909-1.145 0-.704-.351-1.147-.91-1.147-.56 0-.902.434-.902 1.144ZM59.422 9.333a1.6 1.6 0 1 1 3.186 0 1.6 1.6 0 1 1-3.186 0Zm2.5 0c0-.732-.329-1.16-.906-1.16-.58 0-.905.428-.905 1.16 0 .738.326 1.163.905 1.163.577 0 .906-.428.906-1.163ZM63.502 7.646h.641v.537h.05a1.011 1.011 0 0 1 1.008-.602 1.098 1.098 0 0 1 1.169 1.256v2.186h-.666V9.004c0-.542-.236-.812-.73-.812a.775.775 0 0 0-.806.856v1.975h-.666V7.646ZM70.136 6.805v.856h.732v.562h-.732v1.736c0 .354.146.51.478.51.085-.001.17-.006.254-.016v.555c-.12.021-.241.033-.363.034-.74 0-1.036-.26-1.036-.912V8.223h-.536V7.66h.536v-.856h.667ZM71.778 6.328h.66v1.86h.054a1.04 1.04 0 0 1 1.03-.604 1.113 1.113 0 0 1 1.162 1.259v2.18h-.667V9.007c0-.54-.251-.812-.722-.812a.789.789 0 0 0-.85.856v1.972h-.667V6.328ZM78.57 10.111a1.371 1.371 0 0 1-1.463.977 1.534 1.534 0 0 1-1.56-1.743 1.558 1.558 0 0 1 1.557-1.764c.94 0 1.507.642 1.507 1.702v.233h-2.385v.037a.893.893 0 0 0 .9.968.81.81 0 0 0 .803-.41h.642Zm-2.344-1.088h1.706a.815.815 0 0 0-.831-.875.864.864 0 0 0-.875.875Z"/></g></g></svg>
