<svg width="24" height="24" xmlns="http://www.w3.org/2000/svg"><g fill-rule="nonzero" fill="none"><rect fill="#293745" width="24" height="24" rx="4"/><path d="M12 6.098c1.923 0 2.15.007 2.91.042.702.032 1.083.15 1.337.248.336.13.576.287.828.539.252.251.408.491.538.827.099.254.216.635.248 1.337.035.76.042.987.042 2.91 0 1.922-.007 2.15-.042 2.91-.032.701-.15 1.082-.248 1.336-.13.336-.287.576-.538.828-.232.24-.515.423-.828.539-.254.098-.635.215-1.337.247-.76.035-.987.042-2.91.042-1.922 0-2.15-.007-2.91-.041-.701-.033-1.082-.15-1.336-.248a2.232 2.232 0 0 1-.828-.539 2.231 2.231 0 0 1-.538-.828c-.1-.254-.216-.635-.248-1.337-.035-.759-.042-.987-.042-2.91 0-1.922.007-2.15.042-2.909.032-.702.149-1.083.248-1.337.115-.312.3-.595.538-.827a2.23 2.23 0 0 1 .828-.539c.254-.099.635-.216 1.337-.248.76-.035.987-.042 2.91-.042H12Zm0-1.297c-1.955 0-2.2.008-2.968.043-.767.035-1.29.157-1.748.335a3.53 3.53 0 0 0-1.275.83c-.4.4-.647.802-.83 1.276-.179.457-.3.98-.335 1.747-.035.768-.044 1.013-.044 2.969 0 1.955.009 2.2.044 2.968.035.767.156 1.29.334 1.748.184.474.43.875.83 1.275.401.4.803.647 1.276.83.458.179.981.3 1.748.335.768.035 1.013.044 2.968.044 1.956 0 2.201-.009 2.969-.044.766-.035 1.29-.156 1.748-.334.473-.184.875-.43 1.275-.83.4-.401.646-.802.83-1.276.178-.458.3-.981.335-1.748.035-.768.043-1.013.043-2.968 0-1.956-.008-2.2-.043-2.969-.035-.766-.157-1.29-.335-1.747a3.53 3.53 0 0 0-.83-1.276 3.53 3.53 0 0 0-1.275-.83c-.458-.178-.982-.3-1.748-.335-.768-.035-1.013-.043-2.969-.043Z" fill="#FFF"/><path d="M12.004 8.307a3.697 3.697 0 1 0 0 7.394 3.697 3.697 0 0 0 0-7.394Zm0 6.097a2.4 2.4 0 1 1 0-4.8 2.4 2.4 0 0 1 0 4.8Zm4.706-6.247a.864.864 0 1 1-1.728 0 .864.864 0 0 1 1.728 0Z" fill="#FFF"/></g></svg>
