<svg width="24" height="24" fill="none" xmlns="http://www.w3.org/2000/svg"><rect width="24" height="24" rx="4" fill="#293745"/><path fill-rule="evenodd" clip-rule="evenodd" d="M8.264 7.37c0 .747-.569 1.352-1.458 1.352-.855 0-1.424-.605-1.406-1.352C5.382 6.587 5.95 6 6.823 6s1.424.587 1.441 1.37ZM5.471 18.491V9.79h2.705v8.7H5.47v.001ZM10.344 12.567c0-1.085-.036-2.01-.071-2.776h2.348l.125 1.192h.054c.356-.552 1.245-1.387 2.686-1.387 1.78 0 3.114 1.174 3.114 3.736v5.16h-2.704V13.67c0-1.121-.391-1.886-1.37-1.886-.748 0-1.192.516-1.37 1.014a1.92 1.92 0 0 0-.107.677v5.018h-2.704v-5.926h-.001Z" fill="#fff"/></svg>
