<svg width="24" height="24" fill="none" xmlns="http://www.w3.org/2000/svg"><rect width="24" height="24" rx="4" fill="#293745"/><path fill-rule="evenodd" clip-rule="evenodd" d="M19.2 7.385c-.53.235-1.1.394-1.697.465a2.961 2.961 0 0 0 1.299-1.634 5.917 5.917 0 0 1-1.876.717 2.954 2.954 0 0 0-5.034 2.695 8.386 8.386 0 0 1-6.09-3.087c-.253.436-.399.944-.399 1.485 0 1.025.52 1.929 1.314 2.459a2.944 2.944 0 0 1-1.338-.37v.037a2.958 2.958 0 0 0 2.37 2.898 2.969 2.969 0 0 1-1.335.05 2.958 2.958 0 0 0 2.76 2.052A5.929 5.929 0 0 1 4.8 16.375a8.364 8.364 0 0 0 4.528 1.328c5.434 0 8.405-4.502 8.405-8.406a7.8 7.8 0 0 0-.008-.382 6.018 6.018 0 0 0 1.475-1.53Z" fill="#fff"/></svg>
