<svg xmlns="http://www.w3.org/2000/svg" width="90" height="30" fill="none"><path fill="#A6A6A6" d="M82.6 0H6.33c-.23.002-.457.006-.69.01a9.91 9.91 0 0 0-1.502.133A4.828 4.828 0 0 0 .146 4.142a9.745 9.745 0 0 0-.135 1.5c-.007.23-.007.461-.011.691V23.67c.004.233.004.458.011.691.006.503.051 1.005.135 1.502.082.497.24.979.469 1.428.227.449.525.857.883 1.21a4.72 4.72 0 0 0 1.214.885c.449.228.93.387 1.426.473.497.081 1 .126 1.503.132a112.205 112.205 0 0 0 1.51.01h75.45c.27 0 .543 0 .813-.002.228 0 .463-.003.691-.008a9.96 9.96 0 0 0 1.5-.132c.498-.086.98-.246 1.431-.473a4.71 4.71 0 0 0 1.213-.884c.357-.355.656-.764.886-1.211a4.93 4.93 0 0 0 .465-1.428c.083-.497.13-.999.139-1.502.003-.233.003-.458.003-.691.006-.273.006-.544.006-.82V7.151c0-.275 0-.547-.006-.819 0-.23 0-.46-.003-.69a10.138 10.138 0 0 0-.14-1.502 4.964 4.964 0 0 0-.464-1.427 4.85 4.85 0 0 0-2.099-2.1 5.076 5.076 0 0 0-1.43-.47 9.782 9.782 0 0 0-1.5-.133c-.23-.004-.464-.008-.692-.01H82.6Z"/><path fill="#000" d="M6.334 29.344a30.6 30.6 0 0 1-.679-.008 9.518 9.518 0 0 1-1.401-.123 4.412 4.412 0 0 1-1.243-.41 4.055 4.055 0 0 1-1.048-.763 3.99 3.99 0 0 1-.765-1.047A4.291 4.291 0 0 1 .79 25.75a9.31 9.31 0 0 1-.125-1.407 61.54 61.54 0 0 1-.011-.684V6.333s.006-.518.01-.67c.006-.471.048-.94.125-1.405.071-.434.209-.854.408-1.246A4.174 4.174 0 0 1 4.25.789 9.44 9.44 0 0 1 5.657.664l.677-.009H83.41l.685.01c.467.005.933.046 1.394.122a4.46 4.46 0 0 1 1.253.41 4.195 4.195 0 0 1 1.811 1.816c.196.39.33.806.402 1.236.077.468.121.941.13 1.416.002.212.002.44.002.667.006.281.006.55.006.819v15.696c0 .273 0 .539-.006.807 0 .244 0 .467-.003.697-.009.466-.051.93-.128 1.39-.07.436-.207.859-.405 1.253a4.11 4.11 0 0 1-.762 1.04c-.306.31-.66.568-1.05.766-.393.2-.815.338-1.25.412a9.41 9.41 0 0 1-1.402.123c-.22.005-.45.008-.673.008l-.813.001H6.334Z"/><path fill="#fff" d="M18.577 15.225a3.713 3.713 0 0 1 1.767-3.114 3.8 3.8 0 0 0-2.993-1.618c-1.26-.132-2.48.754-3.123.754-.654 0-1.642-.74-2.706-.719a3.987 3.987 0 0 0-3.355 2.046c-1.45 2.511-.368 6.202 1.021 8.232.696.994 1.508 2.104 2.571 2.065 1.04-.043 1.429-.663 2.685-.663 1.244 0 1.608.663 2.693.638 1.116-.018 1.82-.998 2.49-2.002.5-.708.884-1.49 1.139-2.32a3.588 3.588 0 0 1-2.189-3.299Zm-2.049-6.067c.609-.73.908-1.67.836-2.618-.93.098-1.79.542-2.406 1.245a3.476 3.476 0 0 0-.858 2.52 3.074 3.074 0 0 0 2.428-1.147ZM27.288 11.584V8.067H26v-.579h3.21v.58h-1.285v3.516h-.637ZM32.169 10.75a1.255 1.255 0 0 1-1.34.894 1.403 1.403 0 0 1-1.428-1.596 1.427 1.427 0 0 1 1.425-1.614c.86 0 1.38.587 1.38 1.558v.213h-2.183v.034a.817.817 0 0 0 .823.885.741.741 0 0 0 .735-.375h.588Zm-2.146-.997h1.561a.747.747 0 0 0-.76-.8.79.79 0 0 0-.801.8Zm.437-1.777L31.172 7h.716l-.798.976h-.63ZM33.053 7.287h.61v4.297h-.61V7.287ZM37.278 10.75a1.255 1.255 0 0 1-1.34.894 1.404 1.404 0 0 1-1.427-1.596 1.425 1.425 0 0 1 1.425-1.614c.86 0 1.379.587 1.379 1.558v.213h-2.183v.034a.817.817 0 0 0 .823.885.741.741 0 0 0 .736-.375h.587Zm-2.146-.997h1.561a.745.745 0 0 0-.76-.8.791.791 0 0 0-.8.8Zm.437-1.777L36.282 7h.715l-.798.976h-.63ZM40.158 9.503a.69.69 0 0 0-.73-.524c-.511 0-.823.391-.823 1.05 0 .67.315 1.07.823 1.07a.672.672 0 0 0 .73-.508h.593a1.21 1.21 0 0 1-1.32 1.053 1.42 1.42 0 0 1-1.45-1.615 1.409 1.409 0 0 1 1.447-1.595 1.22 1.22 0 0 1 1.323 1.07h-.593ZM41.56 7.287h.605V8.99h.049a.95.95 0 0 1 .942-.554 1.018 1.018 0 0 1 1.065 1.153v1.995h-.61V9.74c0-.494-.23-.744-.662-.744a.722.722 0 0 0-.778.784v1.805h-.61V7.287ZM44.988 10.71c0-.556.414-.877 1.15-.923l.837-.048v-.267c0-.326-.216-.51-.633-.51-.34 0-.577.124-.644.343h-.591c.062-.53.562-.871 1.263-.871.775 0 1.212.385 1.212 1.038v2.112h-.587v-.434h-.049a1.04 1.04 0 0 1-.928.485.934.934 0 0 1-1.03-.925Zm1.987-.264v-.258l-.755.048c-.426.028-.619.173-.619.445 0 .279.241.44.573.44a.727.727 0 0 0 .8-.675ZM48.537 8.493h.587v.474h.046a.839.839 0 0 1 .834-.525c.092-.001.183.007.272.025v.602a1.672 1.672 0 0 0-.34-.036.724.724 0 0 0-.79.726v1.825h-.61v-3.09ZM50.837 11.894h.625c.051.224.31.369.72.369.509 0 .81-.242.81-.65v-.594h-.046a1.039 1.039 0 0 1-.953.52c-.79 0-1.278-.61-1.278-1.536 0-.942.494-1.561 1.283-1.561a1.071 1.071 0 0 1 .971.545h.048v-.494h.585v3.117c0 .707-.554 1.155-1.428 1.155-.772 0-1.271-.346-1.337-.871ZM53.003 10c0-.616-.318-1.01-.838-1.01-.524 0-.82.394-.82 1.01s.296 1.01.82 1.01c.523 0 .838-.39.838-1.01ZM57.188 10.75a1.255 1.255 0 0 1-1.34.894 1.404 1.404 0 0 1-1.428-1.596 1.425 1.425 0 0 1 1.426-1.614c.86 0 1.379.587 1.379 1.558v.213h-2.183v.034a.817.817 0 0 0 .823.885.741.741 0 0 0 .735-.375h.588Zm-2.146-.997h1.561a.745.745 0 0 0-.76-.8.79.79 0 0 0-.801.8ZM58.044 8.493h.587v.474h.045a.839.839 0 0 1 .835-.525c.091-.001.183.007.272.025v.602a1.672 1.672 0 0 0-.34-.036.724.724 0 0 0-.79.726v1.825h-.61v-3.09ZM61.981 10.037c0-.976.502-1.595 1.283-1.595a1.018 1.018 0 0 1 .948.542h.046V7.287h.61v4.297h-.585v-.488h-.048a1.072 1.072 0 0 1-.97.54c-.787 0-1.284-.62-1.284-1.599Zm.63 0c0 .656.31 1.05.826 1.05.515 0 .832-.4.832-1.047 0-.644-.32-1.05-.832-1.05-.513 0-.825.397-.825 1.047ZM65.692 10.71c0-.556.415-.877 1.15-.923l.837-.048v-.267c0-.326-.216-.51-.633-.51-.34 0-.576.124-.644.343h-.59c.062-.53.562-.871 1.263-.871.775 0 1.212.385 1.212 1.038v2.112h-.588v-.434h-.048a1.04 1.04 0 0 1-.928.485.935.935 0 0 1-1.03-.925Zm1.987-.264v-.258l-.755.048c-.425.028-.618.173-.618.445 0 .279.241.44.573.44a.727.727 0 0 0 .8-.675ZM69.242 8.493h.587v.491h.046a.926.926 0 0 1 .922-.55 1.006 1.006 0 0 1 1.07 1.15v2h-.61V9.736c0-.496-.216-.743-.667-.743a.709.709 0 0 0-.738.783v1.808h-.61v-3.09ZM73.94 8.434c.695 0 1.15.323 1.21.868h-.586c-.056-.227-.278-.372-.624-.372-.34 0-.599.162-.599.403 0 .185.156.301.492.378l.513.119c.588.136.863.389.863.843 0 .582-.542.97-1.28.97-.735 0-1.215-.331-1.269-.879h.61a.627.627 0 0 0 .673.386c.38 0 .65-.17.65-.418 0-.184-.145-.303-.454-.377l-.54-.125c-.587-.139-.86-.403-.86-.863 0-.548.503-.933 1.201-.933ZM26.975 13.894h1.276v8.525h-1.276v-8.525ZM29.789 17.013l.697-3.119h1.24l-.845 3.12H29.79ZM36.55 20.115H33.3l-.78 2.304h-1.376l3.077-8.525h1.43l3.078 8.525h-1.4l-.78-2.304Zm-2.913-1.063h2.575l-1.27-3.74h-.035l-1.27 3.74ZM45.374 19.312c0 1.93-1.033 3.172-2.593 3.172a2.107 2.107 0 0 1-1.956-1.088h-.029v3.079H39.52v-8.271h1.235v1.033h.023a2.205 2.205 0 0 1 1.98-1.098c1.577 0 2.616 1.246 2.616 3.173Zm-1.31 0c0-1.259-.651-2.086-1.643-2.086-.975 0-1.63.845-1.63 2.086 0 1.252.655 2.09 1.63 2.09.992 0 1.642-.82 1.642-2.09ZM52.214 19.312c0 1.93-1.033 3.172-2.593 3.172a2.107 2.107 0 0 1-1.956-1.088h-.03v3.079h-1.274v-8.271h1.234v1.033h.023a2.205 2.205 0 0 1 1.98-1.098c1.577 0 2.616 1.246 2.616 3.173Zm-1.31 0c0-1.259-.651-2.086-1.643-2.086-.975 0-1.63.845-1.63 2.086 0 1.252.655 2.09 1.63 2.09.992 0 1.642-.82 1.642-2.09ZM56.735 20.044c.095.845.916 1.4 2.038 1.4 1.075 0 1.849-.555 1.849-1.317 0-.662-.467-1.058-1.571-1.33l-1.105-.266c-1.565-.378-2.292-1.11-2.292-2.298 0-1.47 1.282-2.48 3.102-2.48 1.8 0 3.036 1.01 3.077 2.48h-1.288c-.077-.85-.78-1.364-1.808-1.364-1.027 0-1.73.52-1.73 1.276 0 .602.449.957 1.547 1.228l.94.23c1.749.414 2.475 1.117 2.475 2.364 0 1.595-1.27 2.594-3.29 2.594-1.89 0-3.167-.976-3.25-2.517h1.306ZM64.723 14.733v1.47h1.182v1.01h-1.182v3.427c0 .532.237.78.756.78.14-.002.28-.012.42-.029v1.004a3.508 3.508 0 0 1-.709.06c-1.258 0-1.749-.473-1.749-1.679v-3.562h-.903v-1.01h.903v-1.471h1.282ZM66.589 19.312c0-1.956 1.151-3.185 2.947-3.185 1.802 0 2.948 1.229 2.948 3.185 0 1.96-1.14 3.184-2.948 3.184-1.807 0-2.947-1.224-2.947-3.184Zm4.596 0c0-1.342-.615-2.134-1.649-2.134s-1.648.798-1.648 2.134c0 1.346.614 2.132 1.648 2.132 1.034 0 1.649-.786 1.649-2.132ZM73.536 16.203h1.217v1.058h.03a1.483 1.483 0 0 1 1.494-1.122c.147-.001.294.015.437.047v1.193a1.783 1.783 0 0 0-.573-.077 1.285 1.285 0 0 0-1.33 1.43v3.687h-1.275v-6.216ZM82.595 20.593c-.171 1.128-1.27 1.903-2.676 1.903-1.808 0-2.93-1.211-2.93-3.155 0-1.95 1.128-3.214 2.877-3.214 1.719 0 2.8 1.181 2.8 3.066v.437h-4.39v.077a1.619 1.619 0 0 0 1.673 1.76 1.406 1.406 0 0 0 1.435-.874h1.211Zm-4.312-1.855h3.107a1.495 1.495 0 0 0-1.524-1.577 1.574 1.574 0 0 0-1.583 1.577Z"/></svg>
