<svg xmlns="http://www.w3.org/2000/svg" width="102" height="30" fill="none"><path fill="#000" d="M97.9 30H3.767C1.69 30 0 28.31 0 26.25V3.75C0 1.683 1.69 0 3.767 0H97.9c2.074 0 3.767 1.683 3.767 3.75v22.5c0 2.06-1.693 3.75-3.767 3.75Z"/><path fill="#A6A6A6" fill-rule="evenodd" d="M97.9.6c1.742 0 3.167 1.416 3.167 3.15v22.5A3.161 3.161 0 0 1 97.9 29.4H3.767C2.026 29.4.6 27.984.6 26.25V3.75A3.16 3.16 0 0 1 3.767.6H97.9Zm0-.6H3.767C1.69 0 0 1.69 0 3.75v22.5C0 28.317 1.69 30 3.767 30H97.9c2.074 0 3.767-1.683 3.767-3.75V3.75c0-2.06-1.693-3.75-3.767-3.75Z" clip-rule="evenodd"/><path fill="url(#a)" fill-rule="evenodd" d="M7.825 5.65c-.217.234-.342.591-.342 1.059v16.584c0 .468.125.825.35 1.05l.058.05 9.292-9.292v-.208L7.883 5.6l-.058.05Z" clip-rule="evenodd"/><path fill="url(#b)" fill-rule="evenodd" d="m20.274 18.208-3.099-3.1v-.216l3.1-3.1.067.042 3.665 2.083c1.05.591 1.05 1.567 0 2.166l-3.665 2.083-.068.042Z" clip-rule="evenodd"/><path fill="url(#c)" fill-rule="evenodd" d="M20.342 18.166 17.175 15l-9.35 9.35c.343.366.917.407 1.558.05l10.959-6.234Z" clip-rule="evenodd"/><path fill="url(#d)" fill-rule="evenodd" d="M20.342 11.834 9.383 5.609c-.641-.366-1.217-.316-1.558.05L17.175 15l3.167-3.166Z" clip-rule="evenodd"/><path fill="#000" d="M20.274 18.1 9.391 24.281c-.608.35-1.15.326-1.5.008l-.058.058.058.05c.35.316.892.343 1.5-.007l10.958-6.225-.075-.067v.002Z" opacity=".2"/><path fill="#000" d="M24.007 15.974 20.265 18.1l.067.067 3.666-2.083c.526-.3.784-.692.784-1.083-.032.36-.3.7-.775.974v-.001Z" opacity=".12"/><path fill="#fff" fill-rule="evenodd" d="m9.383 5.718 14.624 8.308c.476.267.743.617.784.974 0-.39-.258-.784-.784-1.083L9.383 5.61c-1.049-.6-1.9-.099-1.9 1.1v.108c0-1.2.851-1.692 1.9-1.1Z" clip-rule="evenodd" opacity=".25"/><path fill="#fff" d="M51.45 16.172a3.187 3.187 0 1 0 3.203 3.188 3.14 3.14 0 0 0-3.203-3.188Zm0 5.122a1.935 1.935 0 1 1 1.8-1.934 1.844 1.844 0 0 1-1.8 1.934Zm-6.982-5.122a3.188 3.188 0 1 0 3.195 3.188 3.144 3.144 0 0 0-3.203-3.188h.008Zm0 5.122a1.935 1.935 0 1 1 1.792-1.934 1.844 1.844 0 0 1-1.8 1.934h.008Zm-8.318-4.14v1.35h3.24a2.828 2.828 0 0 1-.75 1.703 3.317 3.317 0 0 1-2.497.99 3.6 3.6 0 0 1 0-7.2 3.45 3.45 0 0 1 2.452.967l.953-.952a4.717 4.717 0 0 0-3.398-1.402 4.956 4.956 0 0 0-3.63 8.526 4.956 4.956 0 0 0 3.63 1.381 4.5 4.5 0 0 0 3.458-1.387 4.5 4.5 0 0 0 1.17-3.165 4.404 4.404 0 0 0-.075-.848l-4.553.037Zm33.983 1.05a3 3 0 0 0-2.73-2.032 3.001 3.001 0 0 0-3 3.188 3.12 3.12 0 0 0 3.165 3.187 3.172 3.172 0 0 0 2.655-1.41l-1.088-.75a1.822 1.822 0 0 1-1.567.885 1.62 1.62 0 0 1-1.545-.967l4.267-1.763-.157-.338Zm-4.35 1.066a1.749 1.749 0 0 1 1.665-1.86 1.237 1.237 0 0 1 1.185.674l-2.85 1.186Zm-3.465 3.09h1.402v-9.375h-1.402v9.375Zm-2.295-5.476h-.053a2.25 2.25 0 0 0-1.68-.75 3.195 3.195 0 0 0 0 6.383 2.175 2.175 0 0 0 1.68-.75h.045v.457c0 1.223-.652 1.875-1.702 1.875a1.762 1.762 0 0 1-1.605-1.132l-1.223.51a3.037 3.037 0 0 0 2.828 1.883c1.642 0 3-.968 3-3.323V16.36h-1.29v.524Zm-1.605 4.41a1.943 1.943 0 0 1 0-3.87 1.8 1.8 0 0 1 1.702 1.936 1.786 1.786 0 0 1-1.71 1.934h.008Zm18.285-8.31H73.35v9.376h1.403v-3.555h1.957a2.916 2.916 0 1 0 0-5.82h-.007Zm0 4.5h-1.958V14.29h1.988a1.609 1.609 0 1 1 0 3.218l-.03-.023Zm8.647-1.35a2.624 2.624 0 0 0-2.497 1.433l1.245.517a1.333 1.333 0 0 1 1.275-.69 1.354 1.354 0 0 1 1.344.699c.085.157.138.33.156.509v.098a3.097 3.097 0 0 0-1.463-.36c-1.342 0-2.7.75-2.7 2.107a2.178 2.178 0 0 0 .727 1.522 2.17 2.17 0 0 0 1.598.54 1.976 1.976 0 0 0 1.8-.9h.045v.75h1.35v-3.607c0-1.642-1.245-2.595-2.842-2.595l-.038-.023Zm-.172 5.138c-.458 0-1.095-.232-1.095-.795 0-.75.795-.997 1.5-.997a2.49 2.49 0 0 1 1.275.314 1.695 1.695 0 0 1-1.643 1.5l-.037-.022Zm7.972-4.912-1.605 4.064H91.5l-1.665-4.064h-1.5l2.498 5.684-1.425 3.158h1.462l3.84-8.843h-1.56Zm-12.607 6h1.402v-9.375h-1.402v9.375Z"/><path fill="#fff" stroke="#fff" stroke-miterlimit="10" stroke-width=".2" d="M31.305 9.61v-4.5h1.38a2.25 2.25 0 0 1 1.658.622 2.204 2.204 0 0 1 .622 1.627 2.206 2.206 0 0 1-.622 1.628 2.251 2.251 0 0 1-1.658.623h-1.38Zm.578-.555h.795a1.688 1.688 0 0 0 1.237-.45 1.672 1.672 0 0 0 .458-1.246 1.57 1.57 0 0 0-1.688-1.695h-.84l.038 3.39Zm3.892.555v-4.5h.57v4.5h-.57Zm2.873.097a1.68 1.68 0 0 1-.96-.323 1.5 1.5 0 0 1-.615-.9l.525-.21c.06.243.193.46.382.623.18.165.416.256.66.255.23.008.457-.06.645-.195a.63.63 0 0 0 .27-.54.69.69 0 0 0-.27-.577 2.767 2.767 0 0 0-.847-.383 2.25 2.25 0 0 1-.908-.488 1.02 1.02 0 0 1-.307-.75 1.116 1.116 0 0 1 .382-.84c.27-.246.625-.378.99-.367.334-.015.662.086.93.285.214.156.376.373.465.622l-.525.218a.75.75 0 0 0-.277-.398.983.983 0 0 0-1.148 0 .56.56 0 0 0-.175.706.524.524 0 0 0 .16.187c.194.138.41.242.638.307.188.06.373.13.555.21.158.075.31.165.45.27.148.106.267.248.345.413.082.181.123.378.12.577.003.204-.043.405-.135.585a1.096 1.096 0 0 1-.36.405c-.148.102-.31.18-.48.233-.166.05-.338.075-.51.075Zm2.947-.098h-.577v-4.5h1.5c.367-.004.721.133.99.383a1.306 1.306 0 0 1 0 1.92c-.269.25-.623.388-.99.383h-.923V9.61Zm0-2.377h.968a.75.75 0 0 0 .585-.248.749.749 0 0 0 0-1.08.75.75 0 0 0-.585-.247h-.968v1.575Zm6.75 1.792a2.34 2.34 0 0 1-3.3 0 2.43 2.43 0 0 1 0-3.337 2.325 2.325 0 0 1 3.3 0 2.422 2.422 0 0 1 0 3.337Zm-2.872-.374a1.732 1.732 0 0 0 2.445 0 1.92 1.92 0 0 0 0-2.58 1.733 1.733 0 0 0-2.445 0 1.92 1.92 0 0 0 0 2.58Zm4.335.96v-4.5h.705l2.19 3.502V5.109h.577v4.5h-.6l-2.287-3.667V9.61h-.585Zm4.5 0v-4.5h.577v4.5h-.577Zm1.605 0v-4.5h1.627a1.32 1.32 0 0 1 .915.344 1.133 1.133 0 0 1 .39.878.983.983 0 0 1-.165.562c-.11.162-.263.29-.442.368.217.072.408.208.547.39.144.184.221.411.218.645a1.178 1.178 0 0 1-.405.915c-.262.24-.605.372-.96.367l-1.725.03Zm.577-2.573h1.05a.675.675 0 0 0 .525-.218.668.668 0 0 0 .03-.96.646.646 0 0 0-.502-.217H56.49v1.395Zm0 2.018h1.163a.69.69 0 0 0 .54-.233.75.75 0 0 0 .21-.51.75.75 0 0 0-.75-.75H56.49v1.493Zm3.285.555v-4.5h.57v3.945h1.95v.555h-2.52Zm5.88-3.946h-2.047V7.09h1.845v.54h-1.845v1.426h2.047v.555H63.03v-4.5h2.625v.554Zm3.495 4.043a1.68 1.68 0 0 1-.96-.323 1.5 1.5 0 0 1-.615-.9l.525-.21c.06.243.194.46.383.623.18.165.415.256.66.255.23.008.457-.06.645-.195a.63.63 0 0 0 .27-.54.69.69 0 0 0-.27-.577 2.767 2.767 0 0 0-.848-.383 2.25 2.25 0 0 1-.907-.488 1.02 1.02 0 0 1-.308-.75 1.116 1.116 0 0 1 .383-.84c.272-.245.63-.375.997-.36.334-.015.662.086.93.285.214.157.376.374.465.623l-.525.217a.75.75 0 0 0-.277-.397.983.983 0 0 0-1.148 0 .56.56 0 0 0-.175.705.524.524 0 0 0 .16.187c.194.139.41.243.638.308.188.06.374.13.555.21.159.074.31.165.45.27.148.106.267.248.345.413.082.18.123.378.12.577.003.203-.043.404-.135.585a1.096 1.096 0 0 1-.36.405 1.78 1.78 0 0 1-.48.232c-.169.048-.343.07-.518.068Zm3.9 0a1.584 1.584 0 0 1-1.207-.488 1.792 1.792 0 0 1-.465-1.282V5.109h.577v2.85a1.29 1.29 0 0 0 .278.863 1.155 1.155 0 0 0 1.612.038 1.29 1.29 0 0 0 .278-.863V5.109h.577v2.828c.021.47-.14.929-.45 1.282a1.576 1.576 0 0 1-1.2.488Zm2.595-.098v-4.5h1.5c.367-.004.722.133.99.383a1.299 1.299 0 0 1 .113 1.792 1.337 1.337 0 0 1-.75.458l1.26 1.868h-.683l-1.23-1.823H76.2V9.61h-.555Zm.578-2.362h.93a.848.848 0 0 0 .592-.225.752.752 0 0 0 .248-.57.795.795 0 0 0-.218-.54.75.75 0 0 0-.585-.248h-.967v1.583Z"/><defs><linearGradient id="a" x1="599.474" x2="-197.503" y1="98.625" y2="895.663" gradientUnits="userSpaceOnUse"><stop stop-color="#00A0FF"/><stop offset=".007" stop-color="#00A1FF"/><stop offset=".26" stop-color="#00BEFF"/><stop offset=".512" stop-color="#00D2FF"/><stop offset=".76" stop-color="#00DFFF"/><stop offset="1" stop-color="#00E3FF"/></linearGradient><linearGradient id="b" x1="837.262" x2="-977.566" y1="332.592" y2="332.592" gradientUnits="userSpaceOnUse"><stop stop-color="#FFE000"/><stop offset=".409" stop-color="#FFBD00"/><stop offset=".775" stop-color="orange"/><stop offset="1" stop-color="#FF9C00"/></linearGradient><linearGradient id="c" x1="1087.33" x2="-273.112" y1="313.137" y2="1673.7" gradientUnits="userSpaceOnUse"><stop stop-color="#FF3A44"/><stop offset="1" stop-color="#C31162"/></linearGradient><linearGradient id="d" x1="-227.632" x2="379.609" y1="-108.656" y2="498.639" gradientUnits="userSpaceOnUse"><stop stop-color="#32A071"/><stop offset=".069" stop-color="#2DA771"/><stop offset=".476" stop-color="#15CF74"/><stop offset=".801" stop-color="#06E775"/><stop offset="1" stop-color="#00F076"/></linearGradient></defs></svg>
