<svg xmlns="http://www.w3.org/2000/svg" width="90" height="30" fill="none"><path fill="#A6A6A6" d="M82.6 0H6.33c-.23.002-.457.006-.69.01a9.91 9.91 0 0 0-1.502.133A4.828 4.828 0 0 0 .146 4.142a9.745 9.745 0 0 0-.135 1.5c-.007.23-.007.461-.011.691V23.67c.004.233.004.458.011.691.006.503.051 1.005.135 1.502.082.497.24.979.469 1.428.227.449.525.857.883 1.21a4.72 4.72 0 0 0 1.214.885c.449.228.93.387 1.426.473.497.081 1 .126 1.503.132a112.205 112.205 0 0 0 1.51.01h75.45c.27 0 .543 0 .813-.002.228 0 .463-.003.691-.008a9.96 9.96 0 0 0 1.5-.132c.498-.086.98-.246 1.431-.473a4.71 4.71 0 0 0 1.213-.884c.357-.355.656-.764.886-1.211a4.93 4.93 0 0 0 .465-1.428c.083-.497.13-.999.139-1.502.003-.233.003-.458.003-.691.006-.273.006-.544.006-.82V7.151c0-.275 0-.547-.006-.819 0-.23 0-.46-.003-.69a10.138 10.138 0 0 0-.14-1.502 4.964 4.964 0 0 0-.464-1.427 4.85 4.85 0 0 0-2.099-2.1 5.076 5.076 0 0 0-1.43-.47 9.782 9.782 0 0 0-1.5-.133c-.23-.004-.464-.008-.692-.01H82.6Z"/><path fill="#000" d="M6.334 29.344a30.6 30.6 0 0 1-.679-.008 9.518 9.518 0 0 1-1.401-.123 4.412 4.412 0 0 1-1.243-.41 4.055 4.055 0 0 1-1.048-.763 3.99 3.99 0 0 1-.765-1.047A4.291 4.291 0 0 1 .79 25.75a9.31 9.31 0 0 1-.125-1.407 61.54 61.54 0 0 1-.011-.684V6.333s.006-.518.01-.67c.006-.471.048-.94.125-1.405.071-.434.209-.854.408-1.246A4.174 4.174 0 0 1 4.25.789 9.44 9.44 0 0 1 5.657.664l.677-.009H83.41l.685.01c.467.005.933.046 1.394.122a4.46 4.46 0 0 1 1.253.41 4.195 4.195 0 0 1 1.811 1.816c.196.39.33.806.402 1.236.077.468.121.941.13 1.416.002.212.002.44.002.667.006.281.006.55.006.819v15.696c0 .273 0 .539-.006.807 0 .244 0 .467-.003.697-.009.466-.051.93-.128 1.39-.07.436-.207.859-.405 1.253a4.11 4.11 0 0 1-.762 1.04c-.306.31-.66.568-1.05.766-.393.2-.815.338-1.25.412a9.41 9.41 0 0 1-1.402.123c-.22.005-.45.008-.673.008l-.813.001H6.334Z"/><path fill="#fff" d="M18.577 15.225a3.713 3.713 0 0 1 1.767-3.114 3.8 3.8 0 0 0-2.993-1.618c-1.26-.132-2.48.754-3.123.754-.654 0-1.642-.74-2.706-.719a3.987 3.987 0 0 0-3.355 2.046c-1.45 2.511-.368 6.202 1.021 8.232.696.994 1.508 2.104 2.571 2.065 1.04-.043 1.429-.663 2.685-.663 1.244 0 1.608.663 2.693.638 1.116-.018 1.82-.998 2.49-2.002.5-.708.884-1.49 1.139-2.32a3.588 3.588 0 0 1-2.189-3.299Zm-2.049-6.067c.609-.73.908-1.67.836-2.618-.93.098-1.79.542-2.406 1.245a3.476 3.476 0 0 0-.858 2.52 3.074 3.074 0 0 0 2.428-1.147ZM31.906 20.164h-3.55l-.852 2.518H26l3.363-9.314h1.562l3.362 9.314h-1.529l-.852-2.518Zm-3.182-1.161h2.814l-1.387-4.086h-.04l-1.387 4.086ZM41.55 19.287c0 2.11-1.13 3.466-2.834 3.466a2.3 2.3 0 0 1-2.137-1.189h-.032v3.364h-1.394V15.89h1.35v1.13h.025a2.408 2.408 0 0 1 2.162-1.2c1.723 0 2.86 1.361 2.86 3.466Zm-1.433 0c0-1.375-.71-2.279-1.795-2.279-1.065 0-1.78.923-1.78 2.279 0 1.368.715 2.284 1.78 2.284 1.084 0 1.795-.897 1.795-2.284ZM49.023 19.287c0 2.11-1.13 3.466-2.834 3.466a2.303 2.303 0 0 1-2.136-1.189h-.032v3.364h-1.394V15.89h1.349v1.13H44a2.41 2.41 0 0 1 2.163-1.2c1.723 0 2.859 1.361 2.859 3.466Zm-1.433 0c0-1.375-.71-2.279-1.794-2.279-1.065 0-1.781.923-1.781 2.279 0 1.368.716 2.284 1.78 2.284 1.085 0 1.795-.897 1.795-2.284ZM53.962 20.087c.104.923 1.001 1.53 2.227 1.53 1.175 0 2.02-.607 2.02-1.44 0-.722-.51-1.155-1.717-1.452l-1.207-.29c-1.71-.414-2.504-1.214-2.504-2.511 0-1.607 1.4-2.711 3.389-2.711 1.968 0 3.317 1.104 3.362 2.71h-1.406c-.085-.929-.853-1.49-1.976-1.49s-1.89.568-1.89 1.394c0 .658.49 1.046 1.69 1.342l1.026.252c1.911.452 2.705 1.22 2.705 2.582 0 1.743-1.388 2.834-3.595 2.834-2.066 0-3.46-1.066-3.55-2.75h1.426ZM62.69 14.284v1.607h1.29v1.104h-1.29v3.743c0 .582.258.853.825.853.154-.003.307-.013.459-.032v1.097c-.255.048-.515.07-.774.064-1.375 0-1.911-.516-1.911-1.833v-3.892H60.3v-1.104h.988v-1.607h1.4ZM64.728 19.287c0-2.137 1.259-3.48 3.22-3.48 1.97 0 3.222 1.343 3.222 3.48 0 2.142-1.246 3.479-3.221 3.479s-3.22-1.337-3.22-3.48Zm5.022 0c0-1.466-.672-2.33-1.801-2.33-1.13 0-1.8.87-1.8 2.33 0 1.471.67 2.33 1.8 2.33s1.8-.859 1.8-2.33ZM72.32 15.891h1.329v1.156h.032a1.62 1.62 0 0 1 1.633-1.227c.16 0 .32.017.478.052v1.304a1.948 1.948 0 0 0-.627-.084 1.405 1.405 0 0 0-1.452 1.562v4.027h-1.394v-6.79ZM82.218 20.687c-.188 1.233-1.388 2.079-2.924 2.079-1.975 0-3.202-1.324-3.202-3.447 0-2.13 1.233-3.511 3.144-3.511 1.878 0 3.06 1.29 3.06 3.35v.477h-4.797v.084a1.765 1.765 0 0 0 .48 1.374 1.772 1.772 0 0 0 1.347.55 1.534 1.534 0 0 0 1.569-.956h1.323Zm-4.712-2.026h3.395a1.625 1.625 0 0 0-.456-1.226 1.625 1.625 0 0 0-1.21-.498 1.72 1.72 0 0 0-1.729 1.724ZM28.55 6.358a1.98 1.98 0 0 1 2.105 2.224c0 1.43-.773 2.251-2.106 2.251h-1.616V6.358h1.616Zm-.922 3.842h.843a1.409 1.409 0 0 0 1.476-1.61 1.411 1.411 0 0 0-1.476-1.6h-.843v3.21ZM31.44 9.143a1.6 1.6 0 1 1 3.185 0 1.6 1.6 0 1 1-3.185 0Zm2.5 0c0-.732-.329-1.16-.906-1.16-.58 0-.905.428-.905 1.16 0 .738.326 1.163.905 1.163.577 0 .906-.428.906-1.163ZM38.86 10.833h-.692l-.698-2.487h-.053l-.695 2.487h-.684l-.931-3.377h.676l.605 2.577h.05l.694-2.577h.64l.694 2.577h.052l.602-2.577h.667l-.928 3.377ZM40.57 7.456h.641v.537h.05a1.012 1.012 0 0 1 1.008-.602 1.1 1.1 0 0 1 1.169 1.256v2.187h-.667v-2.02c0-.542-.236-.812-.728-.812a.775.775 0 0 0-.807.856v1.976h-.666V7.456ZM44.5 6.138h.666v4.695H44.5V6.138ZM46.093 9.143a1.6 1.6 0 1 1 3.186 0 1.6 1.6 0 1 1-3.186 0Zm2.5 0c0-.732-.33-1.16-.906-1.16-.58 0-.906.428-.906 1.16 0 .738.326 1.163.906 1.163.577 0 .906-.428.906-1.163ZM49.98 9.878c0-.608.453-.958 1.256-1.008l.915-.053v-.291c0-.357-.236-.558-.691-.558-.372 0-.63.136-.704.375h-.645c.068-.58.613-.952 1.38-.952.846 0 1.324.421 1.324 1.135v2.307h-.642v-.474h-.053a1.135 1.135 0 0 1-1.014.53 1.022 1.022 0 0 1-1.126-1.01Zm2.171-.288v-.283l-.825.053c-.465.031-.676.19-.676.487 0 .304.264.48.627.48a.797.797 0 0 0 .874-.737ZM53.69 9.143c0-1.067.55-1.743 1.403-1.743a1.114 1.114 0 0 1 1.035.593h.05V6.138h.666v4.695h-.638V10.3h-.053a1.174 1.174 0 0 1-1.06.589c-.86 0-1.402-.676-1.402-1.746Zm.69 0c0 .716.337 1.147.902 1.147.561 0 .909-.437.909-1.144 0-.704-.351-1.147-.91-1.147-.56 0-.902.434-.902 1.144ZM59.683 6.457a.43.43 0 1 1 .431.407.411.411 0 0 1-.431-.407Zm.099 1h.664v3.376h-.664V7.456ZM61.521 7.456h.642v.537h.05a1.01 1.01 0 0 1 1.007-.602 1.1 1.1 0 0 1 1.17 1.256v2.187h-.667v-2.02c0-.542-.236-.812-.73-.812a.776.776 0 0 0-.806.856v1.976h-.666V7.456ZM67.085 9.143c0-1.067.549-1.743 1.402-1.743a1.113 1.113 0 0 1 1.036.593h.05V6.138h.666v4.695H69.6V10.3h-.052a1.172 1.172 0 0 1-1.06.589c-.86 0-1.403-.676-1.403-1.746Zm.689 0c0 .716.337 1.147.902 1.147.562 0 .91-.437.91-1.144 0-.704-.352-1.147-.91-1.147-.561 0-.902.434-.902 1.144ZM74.188 9.921a1.37 1.37 0 0 1-1.463.978 1.534 1.534 0 0 1-1.56-1.744 1.556 1.556 0 0 1 1.557-1.764c.94 0 1.507.642 1.507 1.702v.233h-2.385v.037a.892.892 0 0 0 .9.968.81.81 0 0 0 .803-.41h.641Zm-2.344-1.088h1.706a.815.815 0 0 0-.832-.875.864.864 0 0 0-.874.875Z"/></svg>
