<svg xmlns="http://www.w3.org/2000/svg" width="90" height="30" fill="none"><path fill="#A6A6A6" d="M82.6 0H6.33c-.23.002-.457.006-.69.01a9.91 9.91 0 0 0-1.502.133A4.828 4.828 0 0 0 .146 4.142a9.745 9.745 0 0 0-.135 1.5c-.007.23-.007.461-.011.691V23.67c.004.233.004.458.011.691.006.503.051 1.005.135 1.502.082.497.24.979.469 1.428.227.449.525.857.883 1.21a4.72 4.72 0 0 0 1.214.885c.449.228.93.387 1.426.473.497.081 1 .126 1.503.132a112.205 112.205 0 0 0 1.51.01h75.45c.27 0 .543 0 .813-.002.228 0 .463-.003.691-.008a9.96 9.96 0 0 0 1.5-.132c.498-.086.98-.246 1.431-.473a4.71 4.71 0 0 0 1.213-.884c.357-.355.656-.764.886-1.211a4.93 4.93 0 0 0 .465-1.428c.083-.497.13-.999.139-1.502.003-.233.003-.458.003-.691.006-.273.006-.544.006-.82V7.151c0-.275 0-.547-.006-.819 0-.23 0-.46-.003-.69a10.138 10.138 0 0 0-.14-1.502 4.964 4.964 0 0 0-.464-1.427 4.85 4.85 0 0 0-2.099-2.1 5.076 5.076 0 0 0-1.43-.47 9.782 9.782 0 0 0-1.5-.133c-.23-.004-.464-.008-.692-.01H82.6Z"/><path fill="#000" d="M6.334 29.344a30.6 30.6 0 0 1-.679-.008 9.518 9.518 0 0 1-1.401-.123 4.412 4.412 0 0 1-1.243-.41 4.055 4.055 0 0 1-1.048-.763 3.99 3.99 0 0 1-.765-1.047A4.291 4.291 0 0 1 .79 25.75a9.31 9.31 0 0 1-.125-1.407 61.54 61.54 0 0 1-.011-.684V6.333s.006-.518.01-.67c.006-.471.048-.94.125-1.405.071-.434.209-.854.408-1.246A4.174 4.174 0 0 1 4.25.789 9.44 9.44 0 0 1 5.657.664l.677-.009H83.41l.685.01c.467.005.933.046 1.394.122a4.46 4.46 0 0 1 1.253.41 4.195 4.195 0 0 1 1.811 1.816c.196.39.33.806.402 1.236.077.468.121.941.13 1.416.002.212.002.44.002.667.006.281.006.55.006.819v15.696c0 .273 0 .539-.006.807 0 .244 0 .467-.003.697-.009.466-.051.93-.128 1.39-.07.436-.207.859-.405 1.253a4.11 4.11 0 0 1-.762 1.04c-.306.31-.66.568-1.05.766-.393.2-.815.338-1.25.412a9.41 9.41 0 0 1-1.402.123c-.22.005-.45.008-.673.008l-.813.001H6.334Z"/><path fill="#fff" d="M18.577 15.225a3.713 3.713 0 0 1 1.767-3.114 3.8 3.8 0 0 0-2.993-1.618c-1.26-.132-2.48.754-3.123.754-.654 0-1.642-.74-2.706-.719a3.987 3.987 0 0 0-3.355 2.046c-1.45 2.511-.368 6.202 1.021 8.232.696.994 1.508 2.104 2.571 2.065 1.04-.043 1.429-.663 2.685-.663 1.244 0 1.608.663 2.693.638 1.116-.018 1.82-.998 2.49-2.002.5-.708.884-1.49 1.139-2.32a3.588 3.588 0 0 1-2.189-3.299Zm-2.049-6.067c.609-.73.908-1.67.836-2.618-.93.098-1.79.542-2.406 1.245a3.476 3.476 0 0 0-.858 2.52 3.074 3.074 0 0 0 2.428-1.147ZM31.906 20.165h-3.55l-.852 2.517H26l3.363-9.313h1.562l3.362 9.313h-1.529l-.852-2.517Zm-3.182-1.162h2.814l-1.387-4.085h-.04l-1.387 4.085ZM41.55 19.287c0 2.11-1.13 3.466-2.834 3.466a2.302 2.302 0 0 1-2.137-1.188h-.032v3.363h-1.394v-9.036h1.35v1.13h.025a2.408 2.408 0 0 1 2.162-1.201c1.723 0 2.86 1.362 2.86 3.466Zm-1.433 0c0-1.374-.71-2.278-1.795-2.278-1.065 0-1.781.923-1.781 2.278 0 1.369.716 2.285 1.781 2.285 1.084 0 1.795-.898 1.795-2.285ZM49.023 19.287c0 2.11-1.13 3.466-2.834 3.466a2.302 2.302 0 0 1-2.136-1.188h-.032v3.363h-1.394v-9.036h1.349v1.13H44a2.41 2.41 0 0 1 2.163-1.201c1.723 0 2.859 1.362 2.859 3.466Zm-1.433 0c0-1.374-.71-2.278-1.794-2.278-1.065 0-1.781.923-1.781 2.278 0 1.369.716 2.285 1.78 2.285 1.085 0 1.795-.898 1.795-2.285ZM53.962 20.087c.104.924 1 1.53 2.227 1.53 1.175 0 2.02-.606 2.02-1.44 0-.722-.51-1.155-1.717-1.451l-1.207-.291c-1.71-.413-2.504-1.213-2.504-2.511 0-1.607 1.4-2.71 3.389-2.71 1.968 0 3.317 1.103 3.362 2.71h-1.406c-.085-.93-.853-1.49-1.976-1.49S54.26 15 54.26 15.827c0 .659.49 1.046 1.691 1.343l1.026.252c1.911.452 2.705 1.22 2.705 2.581 0 1.743-1.388 2.834-3.595 2.834-2.066 0-3.46-1.065-3.55-2.75h1.426ZM62.69 14.285v1.607h1.29v1.104h-1.29v3.743c0 .581.258.852.825.852a4.34 4.34 0 0 0 .459-.032v1.097c-.255.048-.515.07-.774.065-1.375 0-1.911-.517-1.911-1.833v-3.893H60.3v-1.103h.988v-1.607h1.4ZM64.728 19.287c0-2.136 1.259-3.479 3.22-3.479 1.97 0 3.222 1.343 3.222 3.48 0 2.142-1.246 3.478-3.221 3.478s-3.22-1.336-3.22-3.479Zm5.022 0c0-1.465-.672-2.33-1.801-2.33-1.13 0-1.8.871-1.8 2.33 0 1.472.67 2.33 1.8 2.33s1.8-.858 1.8-2.33ZM72.32 15.892h1.328v1.155h.033a1.62 1.62 0 0 1 1.633-1.226c.16 0 .32.017.478.052v1.303a1.95 1.95 0 0 0-.627-.084 1.404 1.404 0 0 0-1.452 1.563v4.027h-1.394v-6.79ZM82.218 20.688c-.188 1.232-1.388 2.078-2.924 2.078-1.975 0-3.201-1.323-3.201-3.446 0-2.13 1.232-3.512 3.142-3.512 1.879 0 3.06 1.29 3.06 3.35v.477H77.5v.084a1.77 1.77 0 0 0 1.827 1.924 1.537 1.537 0 0 0 1.568-.955h1.324Zm-4.712-2.027h3.395a1.634 1.634 0 0 0-1.666-1.723 1.717 1.717 0 0 0-1.729 1.723ZM26.933 10.833V6.358h1.799c.84 0 1.346.428 1.346 1.116a.98.98 0 0 1-.785.962v.053a1.058 1.058 0 0 1 1.008 1.076c0 .787-.573 1.268-1.53 1.268h-1.838Zm.695-2.58h.825c.614 0 .933-.226.933-.651 0-.413-.3-.655-.816-.655h-.942v1.306Zm1.005 1.991c.626 0 .958-.254.958-.729 0-.468-.345-.713-.999-.713h-.964v1.442h1.005ZM31.015 9.878c0-.608.453-.958 1.256-1.008l.915-.053v-.291c0-.357-.236-.558-.691-.558-.372 0-.63.136-.704.375h-.645c.068-.58.613-.952 1.38-.952.846 0 1.324.421 1.324 1.135v2.307h-.642v-.474h-.053a1.136 1.136 0 0 1-1.014.53 1.021 1.021 0 0 1-1.126-1.01Zm2.171-.288v-.283l-.825.053c-.465.031-.676.19-.676.487 0 .304.264.48.627.48a.794.794 0 0 0 .874-.737ZM34.806 6.457a.432.432 0 1 1 .432.407.41.41 0 0 1-.432-.407Zm.1 1h.663v3.376h-.664V7.456ZM37.857 9.636l-.739 1.197h-.731l1.12-1.68-1.13-1.697h.779l.726 1.191h.053l.719-1.19h.74l-1.112 1.668 1.125 1.708h-.765l-.735-1.197h-.05ZM39.995 9.878c0-.608.453-.958 1.257-1.008l.914-.053v-.291c0-.357-.235-.558-.691-.558-.372 0-.63.136-.704.375h-.645c.068-.58.614-.952 1.38-.952.846 0 1.324.421 1.324 1.135v2.307h-.642v-.474h-.052a1.137 1.137 0 0 1-1.015.53 1.021 1.021 0 0 1-1.126-1.01Zm2.171-.288v-.283l-.824.053c-.465.031-.676.19-.676.487 0 .304.263.48.626.48a.794.794 0 0 0 .874-.737ZM43.874 7.456h.641v.518h.05a.915.915 0 0 1 .912-.574c.1-.001.2.008.297.028v.658a1.826 1.826 0 0 0-.372-.04.791.791 0 0 0-.862.793v1.994h-.666V7.456ZM48.343 7.456h.642v.537h.05a1.011 1.011 0 0 1 1.008-.602 1.099 1.099 0 0 1 1.169 1.256v2.186h-.667V8.814c0-.542-.236-.812-.729-.812a.775.775 0 0 0-.806.856v1.975h-.667V7.456ZM52.05 9.878c0-.608.453-.958 1.256-1.008l.915-.053v-.291c0-.357-.236-.558-.691-.558-.373 0-.63.136-.704.375h-.646c.069-.58.614-.952 1.38-.952.847 0 1.325.421 1.325 1.135v2.307h-.642v-.474h-.053a1.138 1.138 0 0 1-1.014.53 1.022 1.022 0 0 1-1.126-1.01Zm2.17-.288v-.283l-.824.053c-.465.031-.676.19-.676.487 0 .304.264.48.627.48a.794.794 0 0 0 .874-.737Z"/></svg>
