<svg xmlns="http://www.w3.org/2000/svg" width="102" height="30" fill="none"><path fill="#000" d="M97.9 30H3.767C1.69 30 0 28.31 0 26.25V3.75C0 1.683 1.69 0 3.767 0H97.9c2.074 0 3.767 1.683 3.767 3.75v22.5c0 2.06-1.693 3.75-3.767 3.75Z"/><path fill="#A6A6A6" fill-rule="evenodd" d="M97.9.6c1.742 0 3.167 1.416 3.167 3.15v22.5A3.161 3.161 0 0 1 97.9 29.4H3.767C2.026 29.4.6 27.984.6 26.25V3.75A3.16 3.16 0 0 1 3.767.6H97.9Zm0-.6H3.767C1.69 0 0 1.69 0 3.75v22.5C0 28.317 1.69 30 3.767 30H97.9c2.074 0 3.767-1.683 3.767-3.75V3.75c0-2.06-1.693-3.75-3.767-3.75Z" clip-rule="evenodd"/><path fill="url(#a)" fill-rule="evenodd" d="M7.825 5.65c-.217.234-.342.591-.342 1.059v16.584c0 .468.125.825.35 1.05l.058.05 9.292-9.292v-.208L7.883 5.6l-.058.05Z" clip-rule="evenodd"/><path fill="url(#b)" fill-rule="evenodd" d="m20.274 18.208-3.099-3.1v-.216l3.1-3.1.067.042 3.665 2.083c1.05.591 1.05 1.567 0 2.166l-3.665 2.083-.068.042Z" clip-rule="evenodd"/><path fill="url(#c)" fill-rule="evenodd" d="M20.342 18.166 17.175 15l-9.35 9.35c.343.366.917.407 1.558.05l10.959-6.234Z" clip-rule="evenodd"/><path fill="url(#d)" fill-rule="evenodd" d="M20.342 11.834 9.383 5.609c-.641-.366-1.217-.316-1.558.05L17.175 15l3.167-3.166Z" clip-rule="evenodd"/><path fill="#000" d="M20.274 18.1 9.391 24.281c-.608.35-1.15.326-1.5.008l-.058.058.058.05c.35.316.892.343 1.5-.007l10.958-6.225-.075-.067v.002Z" opacity=".2"/><path fill="#000" d="M24.007 15.974 20.265 18.1l.067.067 3.666-2.083c.526-.3.784-.692.784-1.083-.032.36-.3.7-.775.974v-.001Z" opacity=".12"/><path fill="#fff" fill-rule="evenodd" d="m9.383 5.718 14.624 8.308c.476.267.743.617.784.974 0-.39-.258-.784-.784-1.083L9.383 5.61c-1.049-.6-1.9-.099-1.9 1.1v.108c0-1.2.851-1.692 1.9-1.1Z" clip-rule="evenodd" opacity=".25"/><path fill="#fff" d="M51.45 16.218a3.187 3.187 0 1 0 3.203 3.187 3.14 3.14 0 0 0-3.203-3.188Zm0 5.122a1.935 1.935 0 1 1 1.8-1.935 1.844 1.844 0 0 1-1.8 1.935Zm-6.982-5.122a3.188 3.188 0 1 0 3.195 3.187 3.144 3.144 0 0 0-3.203-3.188h.008Zm0 5.122a1.935 1.935 0 1 1 1.792-1.935 1.844 1.844 0 0 1-1.8 1.935h.008ZM36.15 17.2v1.35h3.24a2.828 2.828 0 0 1-.75 1.703 3.317 3.317 0 0 1-2.497.99 3.6 3.6 0 0 1 0-7.2 3.45 3.45 0 0 1 2.452.967l.953-.953a4.717 4.717 0 0 0-3.398-1.402 4.956 4.956 0 0 0-3.63 8.527 4.956 4.956 0 0 0 3.63 1.38 4.5 4.5 0 0 0 3.458-1.387 4.5 4.5 0 0 0 1.17-3.165 4.404 4.404 0 0 0-.075-.848l-4.553.038Zm33.983 1.05a3 3 0 0 0-2.73-2.032 3.001 3.001 0 0 0-3 3.187 3.12 3.12 0 0 0 3.165 3.188 3.172 3.172 0 0 0 2.655-1.41l-1.088-.75a1.822 1.822 0 0 1-1.567.884 1.62 1.62 0 0 1-1.545-.967l4.267-1.763-.157-.337Zm-4.35 1.065a1.749 1.749 0 0 1 1.665-1.86 1.237 1.237 0 0 1 1.185.675l-2.85 1.185Zm-3.465 3.09h1.402V13.03h-1.402v9.375Zm-2.295-5.475h-.053a2.25 2.25 0 0 0-1.68-.75 3.195 3.195 0 0 0 0 6.383 2.175 2.175 0 0 0 1.68-.75h.045v.457c0 1.223-.652 1.875-1.702 1.875a1.762 1.762 0 0 1-1.605-1.133l-1.223.51a3.037 3.037 0 0 0 2.828 1.883c1.642 0 3-.968 3-3.323v-5.677h-1.29v.525Zm-1.605 4.41a1.943 1.943 0 0 1 0-3.87 1.8 1.8 0 0 1 1.702 1.935 1.786 1.786 0 0 1-1.71 1.935h.008Zm18.285-8.31H73.35v9.375h1.403V18.85h1.957a2.916 2.916 0 1 0 0-5.82h-.007Zm0 4.5h-1.958v-3.195h1.988a1.609 1.609 0 1 1 0 3.217l-.03-.022Zm8.647-1.35a2.624 2.624 0 0 0-2.497 1.433l1.245.517a1.333 1.333 0 0 1 1.275-.69 1.354 1.354 0 0 1 1.344.698c.085.158.138.331.156.51v.097a3.097 3.097 0 0 0-1.463-.36c-1.342 0-2.7.75-2.7 2.107a2.178 2.178 0 0 0 .727 1.523 2.17 2.17 0 0 0 1.598.54 1.976 1.976 0 0 0 1.8-.9h.045v.75h1.35v-3.608c0-1.642-1.245-2.595-2.842-2.595l-.038-.022Zm-.172 5.137c-.458 0-1.095-.232-1.095-.794 0-.75.795-.998 1.5-.998a2.49 2.49 0 0 1 1.275.315 1.695 1.695 0 0 1-1.643 1.5l-.037-.023Zm7.972-4.912-1.605 4.065H91.5l-1.665-4.065h-1.5l2.498 5.685-1.425 3.157h1.462l3.84-8.842h-1.56Zm-12.607 6h1.402V13.03h-1.402v9.375Z"/><path fill="#fff" stroke="#fff" stroke-miterlimit="10" stroke-width=".2" d="M31.35 9.655v-4.5h1.38a2.25 2.25 0 0 1 1.658.622 2.204 2.204 0 0 1 .615 1.628 2.205 2.205 0 0 1-.623 1.627 2.249 2.249 0 0 1-1.657.623H31.35Zm.578-.555h.795a1.687 1.687 0 0 0 1.237-.45 1.671 1.671 0 0 0 .458-1.245A1.566 1.566 0 0 0 32.73 5.71h-.802V9.1Zm3.892.555v-4.5h.578v4.5h-.578Zm2.873.097a1.68 1.68 0 0 1-.96-.322 1.5 1.5 0 0 1-.615-.9l.525-.21c.06.242.193.46.382.622.18.165.416.256.66.255.23.008.457-.06.645-.195a.63.63 0 0 0 .27-.54.69.69 0 0 0-.27-.577 2.768 2.768 0 0 0-.847-.383 2.25 2.25 0 0 1-.908-.487 1.022 1.022 0 0 1-.307-.75 1.12 1.12 0 0 1 .382-.84c.273-.246.63-.375.998-.36.333-.015.662.086.93.285.214.156.376.373.465.623l-.525.217a.75.75 0 0 0-.278-.397.982.982 0 0 0-1.147 0 .563.563 0 0 0-.176.705.525.525 0 0 0 .16.187c.194.138.41.242.638.308.189.06.374.13.555.21.16.074.31.164.45.27.148.105.267.247.345.412.082.181.123.379.12.577.004.204-.043.405-.135.585a1.094 1.094 0 0 1-.36.405c-.147.102-.31.18-.48.233-.168.048-.343.07-.517.067Zm2.902-.097h-.577v-4.5h1.5c.367-.005.721.132.99.382a1.306 1.306 0 0 1 0 1.92c-.268.251-.623.389-.99.383h-.923v1.815Zm0-2.377h.975a.75.75 0 0 0 .585-.248.75.75 0 0 0 0-1.08.75.75 0 0 0-.585-.248h-.975v1.575Zm6.75 1.792a2.34 2.34 0 0 1-3.3 0 2.43 2.43 0 0 1 0-3.338 2.325 2.325 0 0 1 3.3 0 2.422 2.422 0 0 1 0 3.338Zm-2.872-.375a1.733 1.733 0 0 0 2.445 0 1.92 1.92 0 0 0 0-2.58 1.733 1.733 0 0 0-2.445 0 1.92 1.92 0 0 0 0 2.58Zm4.372.96v-4.5h.705l2.19 3.502V5.155h.578v4.5h-.6L50.43 5.988v3.667h-.585Zm4.5 0v-4.5h.578v4.5h-.578Zm.54-4.852h-.502l.33-.803h.63l-.458.803Zm2.19 4.852-1.582-4.5h.637l1.215 3.652 1.328-3.652h.637l-1.635 4.5h-.6Zm5.52-3.945H60.54v1.425h1.845v.54H60.54V9.1h2.055v.555H59.97v-4.5h2.625v.555Zm.9 3.945v-4.5h.6V9.1h1.95v.555h-2.55Zm4.763 0v-4.5h.705l2.19 3.502V5.155h.577v4.5h-.6l-2.287-3.667v3.667h-.585Zm8.182-.585a2.34 2.34 0 0 1-3.3 0 2.43 2.43 0 0 1 0-3.338 2.325 2.325 0 0 1 3.3 0 2.424 2.424 0 0 1 0 3.338Zm-2.872-.375a1.733 1.733 0 0 0 2.445 0 1.92 1.92 0 0 0 0-2.58 1.733 1.733 0 0 0-2.445 0 1.92 1.92 0 0 0 0 2.58Z"/><defs><linearGradient id="a" x1="599.474" x2="-197.503" y1="98.625" y2="895.663" gradientUnits="userSpaceOnUse"><stop stop-color="#00A0FF"/><stop offset=".007" stop-color="#00A1FF"/><stop offset=".26" stop-color="#00BEFF"/><stop offset=".512" stop-color="#00D2FF"/><stop offset=".76" stop-color="#00DFFF"/><stop offset="1" stop-color="#00E3FF"/></linearGradient><linearGradient id="b" x1="837.262" x2="-977.566" y1="332.592" y2="332.592" gradientUnits="userSpaceOnUse"><stop stop-color="#FFE000"/><stop offset=".409" stop-color="#FFBD00"/><stop offset=".775" stop-color="orange"/><stop offset="1" stop-color="#FF9C00"/></linearGradient><linearGradient id="c" x1="1087.33" x2="-273.112" y1="313.137" y2="1673.7" gradientUnits="userSpaceOnUse"><stop stop-color="#FF3A44"/><stop offset="1" stop-color="#C31162"/></linearGradient><linearGradient id="d" x1="-227.632" x2="379.609" y1="-108.656" y2="498.639" gradientUnits="userSpaceOnUse"><stop stop-color="#32A071"/><stop offset=".069" stop-color="#2DA771"/><stop offset=".476" stop-color="#15CF74"/><stop offset=".801" stop-color="#06E775"/><stop offset="1" stop-color="#00F076"/></linearGradient></defs></svg>
