<svg xmlns="http://www.w3.org/2000/svg" width="92" height="48" fill="none"><g clip-path="url(#a)"><path fill="#FFD300" d="M91.31 44.227H60.903a4.353 4.353 0 0 1-2.091 2.565l30.68-.635a2.1 2.1 0 0 0 2.004-1.68.192.192 0 0 0-.186-.25Z"/><path fill="#00CDFF" d="M60.903 44.227H30.497v.013c-.336 1.519-1.955 2.614-2.851 3.2l31.178-.648a4.407 4.407 0 0 0 2.08-2.565Z"/><path fill="#6559FF" d="M4.312 44.227c-1.494 0-2.851.76-3.648 1.943a4.43 4.43 0 0 0-.486.97c-.075.2-.137.4-.174.611A.208.208 0 0 0 .215 48l27.43-.573a4.396 4.396 0 0 0 2.852-3.2v-.012H4.312v.012Z"/><path fill="#293745" fill-rule="evenodd" d="m24.969 2.963-.137.698c-.1.473-.523.809-.996.809h-.586c-.05 0-.087.037-.1.087l-.771 3.835c-.1.486-.51.822-.996.822h-1.108a.21.21 0 0 1-.2-.249l.872-4.37a.105.105 0 0 0-.1-.125h-.722a.21.21 0 0 1-.2-.249l.2-1.021a.612.612 0 0 1 .598-.486h.535c.05 0 .087-.037.1-.087l.112-.573c.124-.66.398-1.17.822-1.519.423-.36.983-.535 1.668-.535h1.332a.21.21 0 0 1 .2.249l-.137.647c-.1.474-.51.81-.996.81h-.175a.661.661 0 0 0-.436.15.737.737 0 0 0-.224.41l-.062.324c-.012.062.038.124.1.124h1.207a.21.21 0 0 1 .2.25Zm3.648-.56c-.585 0-1.133.1-1.644.311-.51.212-.946.498-1.295.847a3.749 3.749 0 0 0-.834 1.283 4.212 4.212 0 0 0-.311 1.58c0 .561.124 1.06.373 1.508.25.448.598.809 1.059 1.07.46.262.971.399 1.544.399.846 0 1.619-.212 2.303-.648.585-.373.996-.747 1.308-1.332a.201.201 0 0 0-.175-.299h-1.693a.405.405 0 0 0-.286.125c-.09.089-.189.138-.334.21l-.052.026c-.237.112-.486.112-.76.112-.386 0-.685-.1-.896-.299-.187-.174-.287-.435-.312-.771 0-.063.038-.113.1-.113h3.972c.535 0 .996-.423 1.02-.958v-.175c0-.834-.285-1.531-.846-2.079-.598-.51-1.345-.797-2.241-.797Zm.884 2.79h-2.478c-.075 0-.124-.088-.087-.15.15-.25.324-.448.548-.598.261-.187.573-.274.921-.274.349 0 .635.087.847.262.187.15.299.373.361.647 0 .05-.05.112-.112.112Zm58.82-1.956c-.56-.548-1.307-.834-2.204-.834-.585 0-1.133.1-1.643.311-.51.212-.947.498-1.295.847a3.749 3.749 0 0 0-.834 1.283 4.212 4.212 0 0 0-.312 1.58c0 .561.125 1.06.374 1.508.249.448.597.809 1.058 1.07.46.262.971.399 1.544.399.847 0 1.619-.212 2.304-.648.635-.398 1.058-.809 1.382-1.481.037-.063-.013-.15-.087-.15h-2.005a.113.113 0 0 0-.087.038c-.123.156-.216.202-.397.292l-.064.031c-.237.112-.486.112-.76.112-.385 0-.684-.1-.896-.299-.187-.174-.286-.435-.311-.771 0-.063.05-.1.1-.1h4.756c.05 0 .087-.037.1-.075.099-.373.149-.722.149-1.058-.025-.81-.299-1.507-.872-2.055Zm-1.32 1.955h-2.477c-.075 0-.125-.087-.088-.15.15-.248.324-.447.548-.597.262-.187.573-.274.922-.274.348 0 .635.087.846.262.187.15.3.373.362.647 0 .05-.05.112-.113.112ZM65.111.25h-1.095c-.485 0-.896.336-.996.822l-1.482 7.42a.615.615 0 0 0 .598.735h1.27c.1 0 .174-.062.2-.161L65.323.498c.012-.137-.088-.249-.212-.249Zm3.711 2.378h1.333c.137 0 .224.112.211.224l-.149.772c-.087.473-.51.822-.996.822h-.76c-.05 0-.087.037-.1.087-.26 1.283-.398 1.968-.398 2.067 0 .212.063.361.187.473.125.112.311.162.548.162h.56a.21.21 0 0 1 .2.25l-.187.908c-.1.486-.51.822-.996.822h-.399c-.685 0-1.22-.174-1.606-.535-.386-.361-.585-.86-.585-1.47 0-.15.025-.336.062-.548.019-.112.053-.283.1-.516.046-.234.105-.53.174-.89.031-.165.062-.314.09-.448l.047-.225a.105.105 0 0 0-.1-.124H65.2a.21.21 0 0 1-.2-.25l.05-.26 3.524-3.2a.261.261 0 0 1 .137-.05h.125a.21.21 0 0 1 .2.248l-.312 1.557c-.013.062.037.124.1.124Zm-31.726 0h-1.332c-.062 0-.112-.062-.1-.124l.312-1.57a.21.21 0 0 0-.2-.248h-.124c-.05 0-.1.025-.137.05l-3.524 3.212-.05.262a.21.21 0 0 0 .2.249H33c.062 0 .112.062.1.124l-.047.224c-.028.135-.06.284-.09.448-.069.362-.128.657-.175.89v.001c-.047.234-.08.405-.1.516a3.342 3.342 0 0 0-.062.548c0 .61.2 1.109.586 1.47.385.36.92.535 1.606.535h.398c.486 0 .897-.336.996-.822l.187-.909a.21.21 0 0 0-.2-.249h-.56c-.236 0-.423-.05-.547-.162-.125-.112-.187-.261-.187-.473 0-.1.137-.784.398-2.067.013-.05.05-.087.1-.087h.76c.485 0 .908-.349.996-.822l.149-.772c.013-.112-.087-.224-.212-.224Zm39.098 0h1.108c.137 0 .224.112.199.237l-.735 3.673c-.186.909-.61 1.619-1.257 2.13-.648.51-1.457.759-2.428.759-.847 0-1.507-.237-2.017-.698-.51-.46-.76-1.07-.76-1.817 0-.2.025-.436.075-.685.037-.262.174-.947.41-2.067.05-.262.1-.51.15-.735.1-.473.51-.81.996-.81h1.108a.21.21 0 0 1 .2.25c-.385 1.89-.604 3.035-.681 3.436v.001l-.003.015-.026.134c-.013.1-.013.174-.013.236 0 .51.287.76.847.76.311 0 .585-.112.822-.349.237-.236.386-.535.46-.909l.549-2.739c.087-.473.51-.822.996-.822Zm-14.481 0h-1.108c-.486 0-.91.349-.997.822l-.547 2.74c-.075.373-.225.672-.461.908-.237.237-.51.349-.822.349-.56 0-.847-.25-.847-.76 0-.062 0-.137.013-.236l.029-.15c.076-.399.296-1.544.68-3.436a.21.21 0 0 0-.199-.25h-1.108c-.485 0-.896.337-.996.81-.05.224-.1.473-.15.735-.236 1.12-.373 1.805-.41 2.067-.05.249-.075.485-.075.685 0 .747.25 1.357.76 1.817.51.461 1.17.698 2.017.698.97 0 1.78-.25 2.428-.76.647-.51 1.07-1.22 1.257-2.129l.735-3.673a.2.2 0 0 0-.2-.237Zm20.843.087-.36 1.806c-.013.05-.05.075-.088.087h-.772c-.41 0-.722.1-.946.274-.224.174-.386.473-.473.872l-.685 3.386c-.013.05-.05.087-.1.087h-1.98a.105.105 0 0 1-.1-.124l1.283-6.388c.013-.05.05-.087.1-.087h1.282c.05 0 .088.025.1.075l.125.448c.024.062.1.1.161.05.51-.41 1.133-.61 1.843-.61h.51c.063 0 .113.062.1.124ZM8.745.498c-.735 0-1.383.112-1.918.336A2.761 2.761 0 0 0 5.532 1.88c-.324.473-.473 1.046-.473 1.706 0 .822.51 1.42 1.245 1.743.317.134.65.22.98.305.254.066.507.131.75.218.474.162.86.51.611 1.034-.187.398-.66.585-1.083.585-.61 0-.884-.523-.984-.797-.037-.1-.137-.15-.224-.125l-1.843.362c-.162.024-.261.174-.249.336.062.572.324 1.207.772 1.581.535.423 1.258.635 2.18.635.759 0 1.431-.124 2.016-.373 1.021-.436 1.756-1.395 1.868-2.503.05-.498-.038-1.009-.299-1.432a1.768 1.768 0 0 0-.535-.56c-.43-.295-.932-.427-1.433-.558-.282-.074-.564-.149-.833-.252-.225-.087-.511-.199-.598-.448-.112-.324.1-.648.386-.797.249-.124.598-.162.871-.1.324.075.51.324.548.623.013.112.125.187.237.174l1.793-.348c.15-.025.261-.175.249-.336C11.322.822 9.566.498 8.744.498Zm34.552 2.13h1.096c.311 0 .51.348.336.647l-2.353 3.748-1.644 2.614-.51.822-.075.112-.1.162-.597.959-.287.473-.261.423-.025.025c-.062.075-.187.05-.237-.037l-.224-.424-.124-.248a1.908 1.908 0 0 1-.1-.237 1.995 1.995 0 0 1-.112-.934 1.987 1.987 0 0 1 .274-.797l.473-.797.274-.46-1.395-5.529a.414.414 0 0 1 .399-.51h.921c.486 0 .897.336.996.809l.51 2.503c.013.087.113.112.163.062.008 0 .01-.005.014-.011l.01-.014 1.706-2.864c.187-.311.511-.498.872-.498Zm8.193.335c.25.225.423.498.51.86a.2.2 0 0 0 .237.149l1.681-.324c.162-.025.262-.174.25-.336-.063-.51-.337-1.581-1.607-2.39-.56-.35-1.208-.474-1.918-.474s-1.419.137-2.079.399c-.66.274-1.22.635-1.693 1.095a4.992 4.992 0 0 0-1.121 1.656 5.23 5.23 0 0 0-.423 2.055c0 .722.162 1.345.473 1.917.896 1.607 2.963 2.18 4.657 1.781 1.456-.349 3.386-1.532 3.648-3.835.037-.286-.274-.349-.411-.112-1.034 1.768-3.885 3.075-5.429 1.544-1.046-1.034-.672-2.428.025-3.312.71-.897 2.254-1.494 3.2-.673Zm-33.382-.336h1.27c.137 0 .25.125.25.274L18.393 9.04a.227.227 0 0 1-.224.186h-1.195a.228.228 0 0 1-.224-.174.23.23 0 0 0-.349-.15 3.555 3.555 0 0 1-1.905.536c-.834 0-1.531-.261-2.08-.81-.547-.535-.821-1.244-.821-2.128 0-.586.112-1.121.324-1.632a3.8 3.8 0 0 1 .859-1.294 4.02 4.02 0 0 1 1.27-.835 3.77 3.77 0 0 1 1.519-.311c.722 0 1.332.212 1.818.647.112.088.274.075.349-.05l.186-.286a.206.206 0 0 1 .187-.112Zm-3.05 4.831c.485 0 .908-.186 1.27-.56.36-.373.535-.81.547-1.32 0-.36-.112-.66-.348-.884-.237-.224-.536-.336-.922-.336-.485 0-.896.187-1.257.56-.361.374-.536.81-.536 1.32 0 .374.112.66.337.884.224.224.522.336.908.336ZM4.684 21.703c1.27-1.78 2.852-3.163 4.744-4.147 1.893-.983 3.935-1.469 6.151-1.469 2.84 0 5.068.71 6.687 2.117 1.37 1.195 2.229 2.801 2.577 4.843a.998.998 0 0 1-.984 1.158h-4.345c-.436 0-.81-.286-.946-.697a3.611 3.611 0 0 0-1.108-1.643c-.685-.56-1.62-.847-2.777-.847-1.656 0-3.076.598-4.246 1.805-1.17 1.196-1.955 2.901-2.34 5.118-.138.772-.213 1.432-.213 1.992 0 1.569.386 2.777 1.158 3.623.772.847 1.856 1.258 3.225 1.258 2.142 0 3.76-.897 4.869-2.69a.988.988 0 0 1 .846-.46h4.072c.76 0 1.245.822.872 1.481a13.318 13.318 0 0 1-4.084 4.446c-2.142 1.469-4.607 2.191-7.396 2.191-2.79 0-5.218-.822-6.936-2.465-1.73-1.644-2.59-3.873-2.59-6.687 0-.859.087-1.755.25-2.69.398-2.377 1.244-4.457 2.514-6.237Zm62.905-5.578c-1.17.124-2.254.498-3.287 1.095-.56.336-1.096.722-1.62 1.17-.597.524-1.518-.012-1.381-.784a1.02 1.02 0 0 0-1.009-1.195h-3.76c-.498 0-.922.361-1.009.847l-3.698 20.918c-.1.61.361 1.17.984 1.17h3.81c.486 0 .897-.348.984-.821l2.004-11.418c.013-.013.013-.025.013-.038.473-1.793 1.22-3.05 2.254-3.797 1.033-.747 2.415-1.121 4.121-1.121h.672c.498 0 .922-.361 1.009-.847l.76-4.27a.772.772 0 0 0-.847-.91Zm21.354 2.316c1.706 1.618 2.565 3.785 2.565 6.524 0 .884-.075 1.669-.212 2.366-.1.51-.212.983-.324 1.42a.987.987 0 0 1-.958.734h-15.24a.821.821 0 0 0-.823.822v.012c0 1.432.424 2.565 1.258 3.374.847.81 1.955 1.22 3.337 1.22 1.158 0 2.154-.248 3-.771a6.066 6.066 0 0 0 1.769-1.607.979.979 0 0 1 .784-.398h4.072c.784 0 1.27.872.847 1.532-.984 1.531-2.28 2.838-3.91 3.922-2.142 1.42-4.557 2.129-7.272 2.129-2.926 0-5.267-.834-7.035-2.49-1.768-1.656-2.652-3.91-2.652-6.75 0-.833.087-1.692.25-2.614.41-2.378 1.257-4.457 2.552-6.25 1.282-1.793 2.876-3.175 4.78-4.147 1.906-.97 3.985-1.444 6.252-1.444 2.938 0 5.254.81 6.96 2.416Zm-3.312 6.561c0-1.32-.424-2.365-1.283-3.1-.859-.747-1.98-1.12-3.35-1.12-1.468 0-2.776.46-3.934 1.381a7.01 7.01 0 0 0-1.917 2.404.96.96 0 0 0 .859 1.382h8.666a.933.933 0 0 0 .959-.947ZM33.647 17.47c-1.755.959-3.237 2.341-4.457 4.134-1.22 1.793-2.03 3.848-2.44 6.188-.163.934-.25 1.83-.25 2.69 0 1.843.361 3.461 1.071 4.856.71 1.394 1.718 2.465 3 3.225 1.296.76 2.753 1.133 4.446 1.133 1.693 0 3.262-.361 4.707-1.058a13.775 13.775 0 0 0 1.469-.847c.735-.498 1.693.15 1.531 1.008a.43.43 0 0 0 .424.511h4.432c.486 0 .897-.349.984-.822l3.673-20.918c.1-.61-.36-1.17-.983-1.17H47.48c-.486 0-.897.348-.984.821l-.037.237c-.137.772-1.084 1.095-1.656.56a8.045 8.045 0 0 0-1.308-.959c-1.17-.684-2.602-1.033-4.295-1.033-1.955 0-3.798.486-5.554 1.444Zm9.725 4.993c.946.91 1.42 2.18 1.42 3.81 0 .337-.05.86-.175 1.557-.25 1.382-.735 2.577-1.457 3.598-.734 1.021-1.606 1.806-2.615 2.341-1.02.535-2.054.81-3.125.81-1.432 0-2.602-.486-3.536-1.433-.934-.958-1.395-2.253-1.395-3.91 0-.472.038-.97.125-1.493.249-1.37.747-2.565 1.482-3.574.747-.996 1.618-1.768 2.614-2.291a6.588 6.588 0 0 1 3.1-.784c1.433 0 2.615.46 3.562 1.37Z" clip-rule="evenodd"/></g><defs><clipPath id="a"><path fill="#fff" d="M0 0h91.509v48H0z"/></clipPath></defs></svg>
