<svg xmlns="http://www.w3.org/2000/svg" width="102" height="30" fill="none"><path fill="#000" d="M97.9 30H3.767C1.69 30 0 28.31 0 26.25V3.75C0 1.683 1.69 0 3.767 0H97.9c2.074 0 3.767 1.683 3.767 3.75v22.5c0 2.06-1.693 3.75-3.767 3.75Z"/><path fill="#A6A6A6" fill-rule="evenodd" d="M97.9.6c1.742 0 3.167 1.416 3.167 3.15v22.5A3.161 3.161 0 0 1 97.9 29.4H3.767C2.026 29.4.6 27.984.6 26.25V3.75A3.16 3.16 0 0 1 3.767.6H97.9Zm0-.6H3.767C1.69 0 0 1.69 0 3.75v22.5C0 28.317 1.69 30 3.767 30H97.9c2.074 0 3.767-1.683 3.767-3.75V3.75c0-2.06-1.693-3.75-3.767-3.75Z" clip-rule="evenodd"/><path fill="url(#a)" fill-rule="evenodd" d="M7.825 5.65c-.217.234-.342.591-.342 1.059v16.584c0 .468.125.825.35 1.05l.058.05 9.292-9.292v-.208L7.883 5.6l-.058.05Z" clip-rule="evenodd"/><path fill="url(#b)" fill-rule="evenodd" d="m20.274 18.208-3.099-3.1v-.216l3.1-3.1.067.042 3.665 2.083c1.05.591 1.05 1.567 0 2.166l-3.665 2.083-.068.042Z" clip-rule="evenodd"/><path fill="url(#c)" fill-rule="evenodd" d="M20.342 18.166 17.175 15l-9.35 9.35c.343.366.917.407 1.558.05l10.959-6.234Z" clip-rule="evenodd"/><path fill="url(#d)" fill-rule="evenodd" d="M20.342 11.834 9.383 5.609c-.641-.366-1.217-.316-1.558.05L17.175 15l3.167-3.166Z" clip-rule="evenodd"/><path fill="#000" d="M20.274 18.1 9.391 24.281c-.608.35-1.15.326-1.5.008l-.058.058.058.05c.35.316.892.343 1.5-.007l10.958-6.225-.075-.067v.002Z" opacity=".2"/><path fill="#000" d="M24.007 15.974 20.265 18.1l.067.067 3.666-2.083c.526-.3.784-.692.784-1.083-.032.36-.3.7-.775.974v-.001Z" opacity=".12"/><path fill="#fff" fill-rule="evenodd" d="m9.383 5.718 14.624 8.308c.476.267.743.617.784.974 0-.39-.258-.784-.784-1.083L9.383 5.61c-1.049-.6-1.9-.099-1.9 1.1v.108c0-1.2.851-1.692 1.9-1.1Z" clip-rule="evenodd" opacity=".25"/><path fill="#fff" d="M51.45 16.063a3.188 3.188 0 1 0 3.203 3.187 3.14 3.14 0 0 0-3.203-3.187Zm0 5.122a1.935 1.935 0 1 1 1.8-1.935 1.844 1.844 0 0 1-1.8 1.935Zm-6.982-5.122a3.188 3.188 0 1 0 3.195 3.187 3.144 3.144 0 0 0-3.203-3.187h.008Zm0 5.122a1.936 1.936 0 1 1 1.792-1.935 1.844 1.844 0 0 1-1.8 1.935h.008Zm-8.318-4.14v1.35h3.24a2.827 2.827 0 0 1-.75 1.703 3.316 3.316 0 0 1-2.497.99 3.6 3.6 0 0 1 0-7.2 3.45 3.45 0 0 1 2.452.967l.953-.952A4.718 4.718 0 0 0 36.15 12.5a4.958 4.958 0 1 0 0 9.908 4.5 4.5 0 0 0 3.458-1.388 4.5 4.5 0 0 0 1.17-3.165 4.405 4.405 0 0 0-.075-.847l-4.553.037Zm33.983 1.05a3 3 0 0 0-2.73-2.032 3.001 3.001 0 0 0-3 3.187 3.121 3.121 0 0 0 3.165 3.188 3.171 3.171 0 0 0 2.655-1.41l-1.088-.75a1.822 1.822 0 0 1-1.567.885 1.62 1.62 0 0 1-1.545-.968l4.267-1.762-.157-.338Zm-4.35 1.065a1.748 1.748 0 0 1 1.665-1.86 1.237 1.237 0 0 1 1.185.675l-2.85 1.185Zm-3.465 3.09h1.402v-9.375h-1.402v9.375Zm-2.295-5.475h-.053a2.249 2.249 0 0 0-1.68-.75 3.195 3.195 0 0 0 0 6.383 2.175 2.175 0 0 0 1.68-.75h.045v.457c0 1.223-.652 1.875-1.702 1.875a1.762 1.762 0 0 1-1.605-1.132l-1.223.51a3.037 3.037 0 0 0 2.828 1.882c1.642 0 3-.967 3-3.322V16.25h-1.29v.525Zm-1.605 4.41a1.943 1.943 0 0 1 0-3.87 1.8 1.8 0 0 1 1.702 1.935 1.786 1.786 0 0 1-1.71 1.935h.008Zm18.285-8.31H73.35v9.375h1.403v-3.555h1.957a2.916 2.916 0 0 0 1.18-5.661 2.916 2.916 0 0 0-1.18-.159h-.007Zm0 4.5h-1.958V14.18h1.988a1.609 1.609 0 1 1 0 3.218l-.03-.023Zm8.647-1.35a2.624 2.624 0 0 0-2.497 1.433l1.245.517a1.332 1.332 0 0 1 1.275-.69 1.354 1.354 0 0 1 1.344.699c.085.157.138.33.156.509v.097a3.097 3.097 0 0 0-1.463-.36c-1.342 0-2.7.75-2.7 2.108a2.179 2.179 0 0 0 .727 1.522 2.17 2.17 0 0 0 1.598.54 1.974 1.974 0 0 0 1.8-.9h.045v.75h1.35v-3.607c0-1.643-1.245-2.595-2.842-2.595l-.038-.023Zm-.172 5.138c-.458 0-1.095-.233-1.095-.795 0-.75.795-.998 1.5-.998a2.49 2.49 0 0 1 1.275.315 1.694 1.694 0 0 1-1.643 1.5l-.037-.022Zm7.972-4.913-1.605 4.065H91.5l-1.665-4.065h-1.5l2.498 5.685-1.425 3.158h1.462l3.84-8.843h-1.56Zm-12.607 6h1.402v-9.375h-1.402v9.375Z"/><path fill="#fff" stroke="#fff" stroke-miterlimit="10" stroke-width=".2" d="M32.595 9.598c-.303.01-.6-.085-.84-.27a1.5 1.5 0 0 1-.487-.75l.525-.218a.825.825 0 0 0 .825.713.75.75 0 0 0 .622-.263c.154-.202.23-.451.218-.705V5h.577v3.068A1.5 1.5 0 0 1 33.63 9.2a1.412 1.412 0 0 1-1.035.398Zm5.033-4.043h-2.033V6.98h1.845v.54h-1.845v1.425h2.048V9.5h-2.648V5h2.625l.008.555ZM40.095 9.5h-.577V5.555h-1.29V5h3.09v.555h-1.223V9.5Zm1.703 0v-.6l2.392-3.345h-2.295V5h3v.6l-2.392 3.345h2.422V9.5h-3.127Zm5.452 0h-.577V5.555H45.42V5h3.09v.555h-1.26V9.5Zm3.495 0V5h1.628a1.32 1.32 0 0 1 .915.345 1.13 1.13 0 0 1 .39.878.982.982 0 0 1-.165.562c-.11.162-.264.29-.443.368.218.072.408.208.548.39.144.183.22.411.217.645a1.176 1.176 0 0 1-.405.915c-.26.24-.605.372-.96.367l-1.725.03Zm.6-2.572h1.05a.674.674 0 0 0 .525-.218.668.668 0 0 0 0-.945.645.645 0 0 0-.502-.217h-1.073v1.38Zm0 2.017h1.163a.69.69 0 0 0 .54-.232.75.75 0 0 0 .21-.51.75.75 0 0 0-.75-.75h-1.163v1.492Zm5.888-3.39h-2.048V6.98h1.845v.54h-1.845v1.425h2.048V9.5h-2.625V5h2.625v.555ZM58.14 9.5V5h.578v4.5h-.578Z"/><defs><linearGradient id="a" x1="599.474" x2="-197.503" y1="98.625" y2="895.663" gradientUnits="userSpaceOnUse"><stop stop-color="#00A0FF"/><stop offset=".007" stop-color="#00A1FF"/><stop offset=".26" stop-color="#00BEFF"/><stop offset=".512" stop-color="#00D2FF"/><stop offset=".76" stop-color="#00DFFF"/><stop offset="1" stop-color="#00E3FF"/></linearGradient><linearGradient id="b" x1="837.262" x2="-977.566" y1="332.592" y2="332.592" gradientUnits="userSpaceOnUse"><stop stop-color="#FFE000"/><stop offset=".409" stop-color="#FFBD00"/><stop offset=".775" stop-color="orange"/><stop offset="1" stop-color="#FF9C00"/></linearGradient><linearGradient id="c" x1="1087.33" x2="-273.112" y1="313.137" y2="1673.7" gradientUnits="userSpaceOnUse"><stop stop-color="#FF3A44"/><stop offset="1" stop-color="#C31162"/></linearGradient><linearGradient id="d" x1="-227.632" x2="379.609" y1="-108.656" y2="498.639" gradientUnits="userSpaceOnUse"><stop stop-color="#32A071"/><stop offset=".069" stop-color="#2DA771"/><stop offset=".476" stop-color="#15CF74"/><stop offset=".801" stop-color="#06E775"/><stop offset="1" stop-color="#00F076"/></linearGradient></defs></svg>
