<svg width="102" height="30" xmlns="http://www.w3.org/2000/svg"><defs><linearGradient x1="61.03%" y1="4.95%" x2="26.463%" y2="71.926%" id="a"><stop stop-color="#00A0FF" offset="0%"/><stop stop-color="#00A1FF" offset=".657%"/><stop stop-color="#00BEFF" offset="26.01%"/><stop stop-color="#00D2FF" offset="51.22%"/><stop stop-color="#00DFFF" offset="76.04%"/><stop stop-color="#00E3FF" offset="100%"/></linearGradient><linearGradient x1="107.63%" y1="50%" x2="-130.552%" y2="50%" id="b"><stop stop-color="#FFE000" offset="0%"/><stop stop-color="#FFBD00" offset="40.87%"/><stop stop-color="orange" offset="77.54%"/><stop stop-color="#FF9C00" offset="100%"/></linearGradient><linearGradient x1="86.243%" y1="30.904%" x2="-50.129%" y2="136.019%" id="c"><stop stop-color="#FF3A44" offset="0%"/><stop stop-color="#C31162" offset="100%"/></linearGradient><linearGradient x1="-18.811%" y1="-11.825%" x2="42.085%" y2="35.087%" id="d"><stop stop-color="#32A071" offset="0%"/><stop stop-color="#2DA771" offset="6.85%"/><stop stop-color="#15CF74" offset="47.62%"/><stop stop-color="#06E775" offset="80.09%"/><stop stop-color="#00F076" offset="100%"/></linearGradient></defs><g fill="none" fill-rule="evenodd"><path d="M97.9 30H3.767C1.69 30 0 28.31 0 26.25V3.75C0 1.683 1.69 0 3.767 0H97.9c2.074 0 3.767 1.683 3.767 3.75v22.5c0 2.06-1.693 3.75-3.767 3.75Z" fill="#000" fill-rule="nonzero"/><path d="M97.9.6c1.742 0 3.167 1.416 3.167 3.15v22.5A3.16 3.16 0 0 1 97.9 29.4H3.767C2.026 29.4.6 27.984.6 26.25V3.75A3.16 3.16 0 0 1 3.767.6H97.9Zm0-.6H3.767C1.69 0 0 1.69 0 3.75v22.5C0 28.317 1.69 30 3.767 30H97.9c2.074 0 3.767-1.683 3.767-3.75V3.75c0-2.06-1.693-3.75-3.767-3.75Z" fill="#A6A6A6"/><path d="M53.559 9.924c-.68 0-1.252-.238-1.704-.705a2.401 2.401 0 0 1-.689-1.72c0-.684.232-1.261.689-1.72.45-.467 1.023-.705 1.702-.705.671 0 1.243.238 1.704.705.456.473.688 1.051.688 1.72-.008.684-.24 1.262-.688 1.718-.451.471-1.023.707-1.702.707Zm-20.202 0c-.664 0-1.24-.234-1.711-.696-.468-.46-.705-1.042-.705-1.728 0-.686.237-1.268.705-1.728.462-.462 1.038-.696 1.711-.696.33 0 .65.066.956.198.301.13.546.305.728.52l.044.055-.506.497-.053-.062c-.286-.34-.67-.507-1.176-.507-.453 0-.848.161-1.173.48-.327.32-.494.738-.494 1.245 0 .507.167.926.494 1.246.325.317.72.478 1.173.478.482 0 .888-.16 1.204-.478.187-.188.303-.45.344-.78h-1.625v-.7h2.323l.01.064c.016.118.033.24.033.351 0 .646-.194 1.167-.58 1.553-.437.456-1.01.688-1.702.688Zm26.86-.1h-.716l-2.194-3.51.018.632v2.877h-.716V5.175h.817l.023.036 2.063 3.306-.019-.63V5.175h.724v4.65Zm-12.041 0h-.726v-3.95h-1.259v-.699h3.242v.7h-1.26v3.95h.003Zm-2.576 0h-.723V5.176h.723v4.65Zm-4.068 0h-.723v-3.95h-1.26v-.699h3.242v.7h-1.259v3.95Zm-2.44-.007h-2.776V5.175h2.776v.7h-2.05V7.15h1.85v.692h-1.85v1.276h2.05v.7Zm13.294-1.079c.323.324.716.486 1.173.486.47 0 .852-.159 1.172-.486.318-.318.48-.735.48-1.238s-.162-.922-.478-1.238a1.605 1.605 0 0 0-1.173-.486c-.469 0-.852.159-1.17.486-.318.318-.48.735-.48 1.238s.16.922.476 1.238Z" fill="#FFF" fill-rule="nonzero"/><path d="M51.1 16.317c-1.768 0-3.201 1.34-3.201 3.19 0 1.833 1.442 3.191 3.2 3.191 1.768 0 3.2-1.35 3.2-3.19 0-1.85-1.432-3.191-3.2-3.191Zm0 5.117c-.968 0-1.8-.8-1.8-1.934 0-1.15.834-1.934 1.8-1.934.966 0 1.798.784 1.798 1.934.002 1.14-.832 1.934-1.799 1.934Zm-6.983-5.117c-1.767 0-3.2 1.34-3.2 3.19 0 1.833 1.442 3.191 3.2 3.191 1.768 0 3.2-1.35 3.2-3.19 0-1.85-1.434-3.191-3.2-3.191Zm0 5.117c-.967 0-1.799-.8-1.799-1.934 0-1.15.834-1.934 1.8-1.934.966 0 1.798.784 1.798 1.934 0 1.14-.832 1.934-1.799 1.934ZM35.81 17.29v1.35h3.241c-.099.758-.35 1.317-.733 1.7-.475.476-1.208.992-2.5.992-1.992 0-3.55-1.609-3.55-3.6 0-1.992 1.558-3.6 3.55-3.6 1.075 0 1.859.424 2.44.966l.958-.957c-.808-.775-1.883-1.368-3.39-1.368-2.733 0-5.026 2.226-5.026 4.951 0 2.733 2.29 4.95 5.025 4.95 1.476 0 2.583-.482 3.458-1.39.893-.893 1.175-2.152 1.175-3.167 0-.316-.024-.6-.075-.842h-4.575c.002-.002.002.015.002.015Zm33.982 1.051c-.267-.716-1.075-2.033-2.732-2.033-1.643 0-3.008 1.293-3.008 3.191 0 1.792 1.35 3.19 3.167 3.19a3.167 3.167 0 0 0 2.657-1.415l-1.083-.726c-.359.533-.858.883-1.567.883-.716 0-1.218-.325-1.55-.967l4.266-1.767-.15-.356Zm-4.35 1.066c-.034-1.232.957-1.859 1.666-1.859.56 0 1.025.275 1.184.675l-2.85 1.184ZM61.975 22.5h1.4v-9.374h-1.4V22.5Zm-2.3-5.474h-.05c-.317-.376-.917-.717-1.684-.717-1.592 0-3.058 1.401-3.058 3.2 0 1.792 1.459 3.176 3.058 3.176.757 0 1.367-.342 1.683-.726h.05v.459c0 1.217-.65 1.874-1.7 1.874-.858 0-1.391-.617-1.608-1.134l-1.218.51c.35.84 1.283 1.882 2.825 1.882 1.642 0 3.033-.966 3.033-3.325V16.5h-1.324v.526h-.007Zm-1.609 4.408c-.967 0-1.775-.808-1.775-1.925 0-1.126.808-1.941 1.775-1.941.958 0 1.7.825 1.7 1.941.01 1.117-.74 1.925-1.7 1.925Zm18.284-8.308H73V22.5h1.401v-3.55h1.951c1.55 0 3.075-1.124 3.075-2.908 0-1.785-1.519-2.916-3.077-2.916Zm.042 4.515H74.4v-3.217h1.992c1.049 0 1.642.866 1.642 1.608 0 .735-.6 1.609-1.642 1.609Zm8.65-1.341c-1.018 0-2.067.45-2.5 1.433l1.241.516c.267-.516.758-.692 1.276-.692.725 0 1.458.434 1.475 1.208v.1c-.25-.143-.8-.36-1.459-.36-1.34 0-2.7.733-2.7 2.108 0 1.259 1.1 2.067 2.325 2.067.94 0 1.458-.425 1.782-.917h.05v.726h1.35v-3.591c0-1.672-1.241-2.598-2.84-2.598Zm-.176 5.134c-.458 0-1.1-.225-1.1-.8 0-.726.8-1.001 1.483-1.001.618 0 .91.133 1.276.316a1.686 1.686 0 0 1-1.659 1.485Zm7.943-4.934-1.608 4.066h-.05L89.483 16.5h-1.508l2.5 5.684-1.424 3.159h1.459l3.847-8.843h-1.549Zm-12.61 6H81.6v-9.374h-1.4V22.5Z" fill="#FFF"/><path d="M7.825 5.65c-.217.234-.342.591-.342 1.059v16.584c0 .468.125.825.35 1.05l.058.05 9.292-9.292v-.208L7.883 5.6l-.058.05Z" fill="url(#a)"/><path d="m20.274 18.208-3.099-3.1v-.216l3.1-3.1.067.042 3.665 2.083c1.05.591 1.05 1.567 0 2.166l-3.665 2.083-.068.042Z" fill="url(#b)"/><path d="M20.342 18.166 17.175 15l-9.35 9.35c.343.366.917.407 1.558.05l10.959-6.234" fill="url(#c)"/><path d="M20.342 11.834 9.383 5.609c-.641-.366-1.217-.316-1.558.05L17.175 15l3.167-3.166Z" fill="url(#d)"/><path d="M20.274 18.1 9.391 24.281c-.608.35-1.15.326-1.5.008l-.058.058.058.05c.35.316.892.343 1.5-.007l10.958-6.225-.075-.067Z" fill="#000" fill-rule="nonzero" opacity=".2"/><path d="M24.007 15.974 20.265 18.1l.067.067 3.666-2.083c.526-.3.784-.692.784-1.083-.032.36-.3.7-.775.974Z" fill="#000" fill-rule="nonzero" opacity=".12"/><path d="m9.383 5.718 14.624 8.308c.476.267.743.617.784.974 0-.39-.258-.784-.784-1.083L9.383 5.61c-1.049-.6-1.9-.099-1.9 1.1v.108c0-1.2.851-1.692 1.9-1.1Z" fill="#FFF" opacity=".25"/></g></svg>
