<svg xmlns="http://www.w3.org/2000/svg" width="69" height="30" fill="none"><path fill="#1D2E43" d="M29.94 28.362c.691-.166 1.605-.726 1.73-1.813.013-.131-.125-.166-.195-.055-.49.837-1.84 1.453-2.566.727-.491-.492-.318-1.149.014-1.57.325-.416 1.058-.7 1.508-.312.117.104.2.235.242.401.014.049.062.083.11.07l.796-.153a.145.145 0 0 0 .118-.159c-.028-.242-.16-.747-.761-1.135-.263-.165-.574-.228-.906-.228-.332 0-.671.063-.983.194a2.532 2.532 0 0 0-.802.512 2.307 2.307 0 0 0-.533.782c-.131.304-.2.629-.2.968 0 .339.076.636.221.906.422.782 1.404 1.059 2.207.865ZM47.85 25.47c-.27-.262-.616-.394-1.045-.394-.277 0-.54.049-.782.152a1.894 1.894 0 0 0-.616.401 1.81 1.81 0 0 0-.394.61 1.95 1.95 0 0 0-.145.753c0 .27.055.498.173.713.117.214.283.387.498.512.214.124.463.186.733.186.401 0 .768-.103 1.086-.304.277-.173.47-.353.616-.63.034-.062-.014-.145-.083-.145h-.803a.174.174 0 0 0-.138.063c-.048.048-.097.069-.18.11-.11.055-.228.055-.36.055-.18 0-.325-.048-.421-.138-.097-.097-.146-.235-.153-.415h1.93c.256 0 .47-.2.477-.45v-.083a1.284 1.284 0 0 0-.394-.996Zm-.623.927H46.05a.05.05 0 0 1-.042-.076c.07-.118.16-.207.256-.284a.723.723 0 0 1 .436-.13c.166 0 .304.04.401.124.09.076.145.172.173.304 0 .034-.02.062-.048.062ZM19.605 25.083c-.277 0-.54.048-.782.152a1.896 1.896 0 0 0-.615.401 1.814 1.814 0 0 0-.395.61 1.955 1.955 0 0 0-.145.753c0 .27.056.498.173.713.118.214.284.387.498.512.215.124.463.186.733.186.402 0 .768-.104 1.086-.304.277-.173.47-.353.616-.63.035-.062-.014-.145-.083-.145h-.802a.174.174 0 0 0-.139.062c-.048.049-.097.07-.18.111-.11.055-.228.055-.36.055-.18 0-.325-.048-.421-.138-.09-.083-.139-.207-.146-.367 0-.027.021-.055.049-.055h1.881c.256 0 .47-.2.478-.45v-.083c0-.394-.132-.719-.401-.982-.27-.27-.616-.401-1.045-.401Zm.415 1.314h-1.176a.05.05 0 0 1-.042-.076c.07-.118.16-.207.256-.284a.723.723 0 0 1 .436-.13c.166 0 .305.04.401.124.09.076.146.172.174.304.006.034-.014.062-.049.062ZM15.012 25.187h-.332a.214.214 0 0 0-.166.09l-.097.159a.05.05 0 0 1-.076.007c-.242-.236-.54-.353-.913-.353a1.83 1.83 0 0 0-.72.145 1.97 1.97 0 0 0-.601.395 1.927 1.927 0 0 0-.56 1.377c0 .414.13.753.386 1.009.257.256.588.387.99.387.352 0 .67-.096.968-.297.028-.02.07-.007.076.028l.02.09c.008.041.05.076.098.076h.27c.228 0 .428-.16.47-.388l.477-2.386a.297.297 0 0 0-.29-.34Zm-1.225 2.02a.803.803 0 0 1-.602.262.585.585 0 0 1-.428-.159c-.111-.103-.16-.242-.16-.415 0-.242.084-.442.257-.622a.803.803 0 0 1 .594-.263c.18 0 .325.055.436.159.11.104.166.242.166.422a.902.902 0 0 1-.263.616ZM17.813 25.67l.063-.331a.097.097 0 0 0-.097-.118h-.567c-.028 0-.056-.027-.049-.055l.028-.152a.292.292 0 0 1 .11-.194.301.301 0 0 1 .208-.07h.083c.228 0 .429-.158.47-.387l.063-.304a.097.097 0 0 0-.097-.117h-.63c-.325 0-.588.082-.788.249-.2.166-.325.408-.388.719l-.055.27c-.007.02-.028.041-.048.041h-.256a.29.29 0 0 0-.284.229l-.097.484a.097.097 0 0 0 .097.117h.346c.027 0 .055.028.048.056l-.415 2.068a.097.097 0 0 0 .097.118h.526c.228 0 .429-.16.47-.388l.36-1.819c.007-.02.028-.042.048-.042h.277a.462.462 0 0 0 .477-.373ZM35.46 28.3h.602c.048 0 .083-.035.097-.076l.81-4.054a.097.097 0 0 0-.098-.118h-.519a.475.475 0 0 0-.47.388l-.706 3.514a.29.29 0 0 0 .284.346ZM36.816 25.934a.097.097 0 0 0 .097.117h.408c.034 0 .055.028.048.056-.02.09-.041.193-.062.318-.07.339-.11.56-.125.664-.013.104-.027.187-.027.263 0 .29.09.519.276.692.187.173.436.256.755.256h.186c.228 0 .43-.16.47-.388l.084-.429a.097.097 0 0 0-.097-.117h-.263c-.11 0-.2-.028-.256-.076-.062-.056-.09-.125-.09-.222 0-.048.062-.373.187-.975.007-.02.028-.042.048-.042h.36c.228 0 .429-.159.47-.387l.076-.367a.097.097 0 0 0-.096-.117h-.63c-.028 0-.055-.028-.048-.055l.145-.74a.097.097 0 0 0-.097-.118h-.062c-.02 0-.049.007-.063.027l-1.666 1.515-.028.125ZM23.617 25.187h-.63c-.027 0-.055-.028-.048-.056l.145-.74a.097.097 0 0 0-.096-.117h-.063c-.02 0-.048.006-.062.027l-1.667 1.515-.028.125a.097.097 0 0 0 .097.117h.408c.035 0 .056.028.049.056-.021.09-.042.193-.063.318-.069.339-.11.56-.124.664-.014.104-.028.187-.028.263 0 .29.09.519.277.692.18.173.436.256.754.256h.187c.228 0 .429-.16.47-.388l.083-.429a.097.097 0 0 0-.097-.117h-.262a.39.39 0 0 1-.256-.076c-.063-.056-.09-.125-.09-.222 0-.048.062-.373.186-.975.007-.02.028-.042.049-.042h.36c.228 0 .428-.159.47-.387l.076-.367a.097.097 0 0 0-.097-.117ZM39.687 28.071c.242.222.553.325.954.325.457 0 .844-.117 1.148-.36.312-.241.505-.573.595-1.002l.346-1.737a.097.097 0 0 0-.096-.117h-.526a.475.475 0 0 0-.47.387l-.257 1.3a.798.798 0 0 1-.221.43.535.535 0 0 1-.387.166c-.27 0-.402-.118-.402-.36 0-.028 0-.07.007-.11.007-.063.125-.623.34-1.702a.097.097 0 0 0-.098-.118h-.525a.475.475 0 0 0-.47.387c-.021.104-.042.222-.07.346-.11.533-.173.858-.194.976-.02.117-.034.228-.034.325.007.352.124.643.36.864ZM32.313 28.071c.242.222.553.325.954.325.457 0 .844-.117 1.148-.36.312-.241.505-.573.595-1.002l.346-1.737a.097.097 0 0 0-.097-.117h-.525a.475.475 0 0 0-.47.387l-.257 1.3a.8.8 0 0 1-.221.43.535.535 0 0 1-.388.166c-.27 0-.4-.118-.4-.36 0-.028 0-.07.006-.11.007-.063.125-.623.34-1.702a.097.097 0 0 0-.098-.118h-.525a.475.475 0 0 0-.47.387c-.021.104-.042.222-.07.346-.11.533-.173.858-.194.976-.02.117-.034.228-.034.325 0 .352.124.643.36.864ZM42.855 28.3h.602c.048 0 .083-.035.096-.076l.312-1.57c.041-.188.117-.326.221-.409.104-.083.256-.125.443-.125h.014c.228 0 .428-.159.47-.387l.09-.45a.097.097 0 0 0-.097-.117h-.187c-.339 0-.63.097-.871.29-.028.021-.063.007-.076-.027l-.049-.18a.095.095 0 0 0-.09-.07h-.214a.475.475 0 0 0-.47.388l-.478 2.387a.294.294 0 0 0 .284.346ZM27.062 25.187h-.512a.485.485 0 0 0-.415.235l-.81 1.356-.013.014c-.028.02-.07.006-.076-.028l-.242-1.19a.487.487 0 0 0-.47-.387h-.437a.192.192 0 0 0-.186.242l.657 2.615-.353.595a.955.955 0 0 0-.027.933l.159.319c.02.041.076.048.11.02l.014-.014.63-1.01 2.13-3.403c.09-.138 0-.304-.159-.297ZM10.204 24.177c-.346 0-.65.055-.906.159-.256.11-.464.27-.616.498-.152.221-.228.491-.228.81 0 .394.242.67.588.822.263.111.553.153.823.25.221.075.408.242.29.49-.09.187-.31.277-.511.277-.29 0-.422-.249-.464-.38-.014-.042-.062-.07-.11-.062l-.872.172a.145.145 0 0 0-.118.16c.028.27.153.574.367.747.25.2.595.304 1.03.304.36 0 .679-.055.955-.173.485-.207.83-.657.886-1.183a1.066 1.066 0 0 0-.138-.67.921.921 0 0 0-.25-.27c-.318-.222-.719-.243-1.072-.381-.11-.041-.242-.097-.283-.214-.056-.153.048-.312.18-.38a.641.641 0 0 1 .408-.05.322.322 0 0 1 .255.291c.007.056.063.09.111.083l.851-.166a.145.145 0 0 0 .118-.159c-.083-.816-.913-.975-1.3-.975h.006ZM47.69 29.067H27.795a1 1 0 0 0-.982.81c-.007.034.014.055.048.055l20.421-.422a.48.48 0 0 0 .457-.387c.007-.028-.021-.056-.049-.056ZM2.394 25.076c.395 0 .727.125.976.38.256.256.38.588.38.997 0 .352-.083.678-.256.975a1.9 1.9 0 0 1-.699.706 1.878 1.878 0 0 1-.961.262c-.346 0-.643-.11-.872-.332a.05.05 0 0 0-.076.007l-.09.139a.192.192 0 0 1-.159.09h-.54c-.062 0-.103-.056-.096-.118l.754-3.75a.475.475 0 0 1 .47-.387h.512c.062 0 .104.056.097.118l-.208 1.017c-.007.041.035.069.07.055.22-.104.45-.159.698-.159Zm-.54 2.387c.229 0 .43-.09.596-.263a.873.873 0 0 0 .255-.623.542.542 0 0 0-.166-.415.613.613 0 0 0-.435-.159.85.85 0 0 0-.602.256.867.867 0 0 0-.25.622c0 .173.056.312.167.416a.59.59 0 0 0 .436.166ZM7.202 25.187H6.69a.485.485 0 0 0-.415.235l-.81 1.356-.013.014c-.028.02-.07.006-.076-.028l-.242-1.19a.487.487 0 0 0-.47-.387h-.437a.192.192 0 0 0-.186.242l.657 2.615-.353.595a.955.955 0 0 0-.028.933l.16.319c.02.041.075.048.11.02l.014-.014.63-1.01 2.13-3.403c.09-.138-.007-.304-.16-.297Z"/><path fill="#00BAFF" d="M63.026 4.317c-1.286 0-2.386.442-3.369 1.355l-.11-.422c-.09-.394-.408-.643-.823-.643h-1.716c-.463 0-.782.318-.782.782v15.336c0 .456.325.782.782.782h2.387c.463 0 .781-.319.781-.782v-3.362l-.076-1.134a4.792 4.792 0 0 0 2.92.968c2.877 0 5.852-2.407 5.852-6.433s-2.968-6.44-5.846-6.447Zm1.965 6.44c0 1.688-1.17 3.05-2.601 3.05-1.432 0-2.601-1.37-2.601-3.05 0-1.681 1.162-3.05 2.6-3.05 1.44-.008 2.602 1.369 2.602 3.05ZM48.77 4.317c-1.28 0-2.38.442-3.349 1.355l-.11-.422a.806.806 0 0 0-.817-.643h-1.708c-.457 0-.782.318-.782.782v15.336c0 .456.318.782.782.782h2.38c.456 0 .78-.319.78-.782v-3.362l-.075-1.134a4.738 4.738 0 0 0 2.905.968c2.864 0 5.825-2.407 5.825-6.433s-2.968-6.447-5.832-6.447Zm1.964 6.447c0 1.688-1.162 3.05-2.587 3.05-1.425 0-2.587-1.37-2.587-3.05 0-1.681 1.162-3.051 2.587-3.051 1.425 0 2.587 1.37 2.587 3.05ZM39.25 4.62v-.013h-1.86c-.415 0-.713.242-.796.636l-.138.512c-.892-.947-2.034-1.445-3.32-1.445-1.515 0-3.003.636-4.082 1.743-1.169 1.197-1.812 2.87-1.812 4.718 0 1.846.643 3.507 1.812 4.71 1.086 1.114 2.58 1.75 4.082 1.75 1.314 0 2.462-.504 3.34-1.473l.111.526c.083.415.374.657.803.657h1.715c.464 0 .782-.318.782-.782V5.39c0-.408-.256-.706-.636-.768Zm-2.932 6.178c0 1.695-1.162 3.072-2.601 3.072-1.432 0-2.601-1.377-2.601-3.072s1.162-3.071 2.6-3.071c1.433 0 2.602 1.376 2.602 3.071Z"/><path fill="#1D2E43" d="M24.98.014V0h-2.539c-.463 0-.781.325-.781.782v3.396l.076 1.114a4.777 4.777 0 0 0-2.92-.969c-2.877 0-5.852 2.415-5.852 6.454 0 4.04 2.975 6.455 5.852 6.455 1.273 0 2.4-.457 3.37-1.342l.11.415c.09.387.408.643.823.643h1.709c.463 0 .781-.318.781-.782V.79c.007-.415-.249-.713-.629-.775ZM22.047 10.79c0 1.688-1.162 3.065-2.601 3.065s-2.601-1.377-2.601-3.065 1.162-3.064 2.601-3.064 2.6 1.376 2.6 3.064ZM6.04 4.317h-.146C4.241 4.358 2.747 5 1.69 6.157.609 7.326.015 8.965.015 10.777c0 1.903.643 3.528 1.853 4.704 1.17 1.135 2.837 1.757 4.684 1.757 1.432 0 2.884-.366 4.095-1.03a.774.774 0 0 0 .387-.464.775.775 0 0 0-.09-.602l-.72-1.293-.006-.02c-.235-.374-.664-.492-1.038-.291-.844.373-1.556.54-2.38.54-1.48 0-2.434-.623-2.836-1.848h6.932c.436 0 .754-.284.802-.705.042-.305.097-.748.097-1.176-.014-3.611-2.324-6.032-5.755-6.032Zm2.117 5.132H3.902c.325-1.252 1.128-1.985 2.165-1.985a2.01 2.01 0 0 1 1.446.609c.346.353.574.837.644 1.376Z"/></svg>
